<svg xmlns="http://www.w3.org/2000/svg" viewBox="0 0 156 104"><defs><style>.cls-1{fill:#0591e4;}.cls-2{fill:#fff;}.cls-3{fill:#2361ff;}.cls-4{fill:#d82911;}</style></defs><title>logo</title><g id="Layer_2" data-name="Layer 2"><g id="Layer_1-2" data-name="Layer 1"><path class="cls-1" d="M132.5,14.7C117.89,5.22,98.53,0,78,0S38.11,5.22,23.5,14.7C8.34,24.53,0,37.78,0,52S8.34,79.47,23.5,89.3C38.11,98.78,57.47,104,78,104s39.89-5.22,54.5-14.7C147.66,79.47,156,66.22,156,52S147.66,24.53,132.5,14.7ZM78,96C39.4,96,8,76.26,8,52,8,35.75,22.09,21.52,43,13.91V53H56V10.23c.99-.21,1.99-.4,3-.58V53H72V8.17c1.32-.08,2.65-.13,4-.15V53H89V8.55c1.35.13,2.68.29,4,.47V53h13V11.68c24.7,6.8,42,22.31,42,40.32C148,76.26,116.6,96,78,96Z"/><path class="cls-2" d="M148,52c0,24.26-31.4,44-70,44S8,76.26,8,52C8,35.75,22.09,21.52,43,13.91V53H56V10.23c.99-.21,1.99-.4,3-.58V53H72V8.17c1.32-.08,2.65-.13,4-.15V53H89V8.55c1.35.13,2.68.29,4,.47V53h13V11.68C130.7,18.48,148,33.99,148,52Z"/><path class="cls-1" d="M43.305,59.493h1.718V64.55h2.459v1.439H43.305Z"/><path class="cls-1" d="M49.914,59.493h2.079l1.979,6.5H52.153l-.74-3.158c-.16-.62-.32-1.409-.479-2.059h-.04c-.14.66-.3,1.439-.46,2.059l-.74,3.158H47.935Zm-.56,3.788h3.179V64.61H49.354Z"/><path class="cls-1" d="M54.465,62.791A3.187,3.187,0,0,1,57.7,59.373a2.931,2.931,0,0,1,2.119.859l-.9,1.1a1.623,1.623,0,0,0-1.159-.48c-.88,0-1.539.7-1.539,1.879,0,1.219.539,1.9,1.7,1.9a.968.968,0,0,0,.5-.12v-.9h-.959v-1.4h2.478v3.1a3.277,3.277,0,0,1-2.2.8A3.072,3.072,0,0,1,54.465,62.791Z"/><path class="cls-1" d="M61.175,62.711c0-2.139,1.219-3.338,3.018-3.338s3.018,1.209,3.018,3.338-1.219,3.4-3.018,3.4S61.175,64.85,61.175,62.711Zm4.277,0c0-1.179-.479-1.859-1.259-1.859s-1.259.68-1.259,1.859.48,1.919,1.259,1.919S65.452,63.891,65.452,62.711Z"/><path class="cls-1" d="M68.225,65.18,69.2,64a2.64,2.64,0,0,0,1.519.63c.52,0,.74-.17.74-.46,0-.31-.33-.41-.88-.629l-.809-.34a1.92,1.92,0,0,1-1.31-1.809,2.2,2.2,0,0,1,2.419-2.019,3.126,3.126,0,0,1,2.159.869l-.859,1.08a2.142,2.142,0,0,0-1.3-.47c-.42,0-.679.15-.679.44,0,.31.369.419.959.649l.79.31a1.787,1.787,0,0,1,1.269,1.779c0,1.1-.92,2.079-2.539,2.079A3.758,3.758,0,0,1,68.225,65.18Z"/><path class="cls-1" d="M76.765,59.493h1.718V64.55h2.459v1.439H76.765Z"/><path class="cls-1" d="M82.314,59.493h4.2v1.439H84.033v1.02h2.119v1.439H84.033V64.55h2.579v1.439h-4.3Z"/><path class="cls-1" d="M89.284,59.493h2.079l1.978,6.5H91.522l-.739-3.158c-.16-.62-.32-1.409-.48-2.059h-.04c-.14.66-.3,1.439-.459,2.059l-.74,3.158H87.305Zm-.56,3.788H91.9V64.61H88.724Z"/><path class="cls-1" d="M94.115,59.493h1.919c1.979,0,3.338.919,3.338,3.218a2.947,2.947,0,0,1-3.239,3.278H94.115Zm1.819,5.117c.939,0,1.679-.38,1.679-1.9s-.74-1.839-1.679-1.839h-.1V64.61Z"/><path class="cls-1" d="M100.785,59.493h4.2v1.439H102.5v1.02h2.12v1.439H102.5V64.55h2.579v1.439h-4.3Z"/><path class="cls-1" d="M106.6,59.493h2.458c1.4,0,2.6.48,2.6,2.1,0,1.569-1.2,2.219-2.6,2.219h-.74v2.178H106.6Zm2.338,2.958c.68,0,1.04-.3,1.04-.859s-.36-.74-1.04-.74h-.62v1.6Zm-.189.91,1.159-1.14,2.109,3.768h-1.919Z"/><path class="cls-1" d="M112.6,65.18l.98-1.18a2.64,2.64,0,0,0,1.519.63c.52,0,.74-.17.74-.46,0-.31-.33-.41-.88-.629l-.809-.34a1.92,1.92,0,0,1-1.31-1.809,2.2,2.2,0,0,1,2.419-2.019,3.127,3.127,0,0,1,2.159.869l-.859,1.08a2.142,2.142,0,0,0-1.3-.47c-.42,0-.68.15-.68.44,0,.31.37.419.96.649l.79.31A1.787,1.787,0,0,1,117.6,64.03c0,1.1-.92,2.079-2.539,2.079A3.763,3.763,0,0,1,112.6,65.18Z"/><path class="cls-1" d="M118.9,59.493h1.718v2.419h1.939V59.493h1.719v6.5h-1.719V63.411h-1.939v2.578H118.9Z"/><path class="cls-1" d="M125.964,59.493h1.719v6.5h-1.719Z"/><path class="cls-1" d="M129.375,59.493h2.378c1.419,0,2.639.52,2.639,2.159,0,1.589-1.24,2.278-2.6,2.278h-.7v2.059h-1.718Zm2.338,3.078c.68,0,1-.34,1-.919s-.379-.8-1.039-.8h-.58v1.719Z"/><path d="M43.025,74.791a3.168,3.168,0,0,1,3.138-3.418,2.867,2.867,0,0,1,2.019.859l-.9,1.1a1.583,1.583,0,0,0-1.079-.48c-.76,0-1.419.7-1.419,1.879,0,1.219.559,1.9,1.4,1.9a1.619,1.619,0,0,0,1.179-.56l.9,1.08a2.74,2.74,0,0,1-2.139.959A3.019,3.019,0,0,1,43.025,74.791Z"/><path d="M48.735,74.711c0-2.139,1.219-3.338,3.018-3.338s3.018,1.209,3.018,3.338-1.219,3.4-3.018,3.4S48.735,76.85,48.735,74.711Zm4.277,0c0-1.179-.479-1.859-1.259-1.859s-1.259.68-1.259,1.859.48,1.919,1.259,1.919S53.012,75.891,53.012,74.711Z"/><path d="M56.185,71.493h1.758l1.44,2.9L60,75.851h.04a23.344,23.344,0,0,1-.22-2.479V71.493h1.639v6.5H59.7l-1.44-2.908-.619-1.449H57.6a24.282,24.282,0,0,1,.22,2.478v1.879H56.185Z"/><path d="M63.155,71.493h4.238v1.439H64.874v1.239h2.159V75.61H64.874v2.379H63.155Z"/><path d="M68.765,71.493h4.2v1.439H70.483v1.02H72.6v1.439h-2.12V76.55h2.579v1.439h-4.3Z"/><path d="M74.575,71.493h2.458c1.4,0,2.6.48,2.6,2.1,0,1.569-1.2,2.219-2.6,2.219h-.74v2.178H74.575Zm2.338,2.958c.68,0,1.04-.3,1.04-.859s-.36-.74-1.04-.74h-.62v1.6Zm-.189.91,1.159-1.14,2.109,3.768H78.073Z"/><path d="M81.125,71.493h4.2v1.439H82.843v1.02h2.119v1.439H82.843V76.55h2.579v1.439h-4.3Z"/><path d="M86.935,71.493h1.758l1.44,2.9.619,1.46h.04a23.344,23.344,0,0,1-.22-2.479V71.493h1.639v6.5H90.453l-1.44-2.908-.619-1.449h-.04a24.282,24.282,0,0,1,.22,2.478v1.879H86.935Z"/><path d="M93.625,74.791a3.168,3.168,0,0,1,3.138-3.418,2.863,2.863,0,0,1,2.018.859l-.9,1.1a1.585,1.585,0,0,0-1.079-.48c-.76,0-1.42.7-1.42,1.879,0,1.219.56,1.9,1.4,1.9a1.622,1.622,0,0,0,1.179-.56l.9,1.08a2.737,2.737,0,0,1-2.138.959A3.019,3.019,0,0,1,93.625,74.791Z"/><path d="M100.014,71.493h4.2v1.439h-2.479v1.02h2.119v1.439h-2.119V76.55h2.579v1.439h-4.3Z"/><path d="M45.351,48.129c2.7-2.484,4.789-4.393,4.789-5.941a1.33,1.33,0,0,0-1.405-1.513,2.81,2.81,0,0,0-1.872,1.08L45.206,40.1a4.941,4.941,0,0,1,3.961-1.837,3.641,3.641,0,0,1,3.926,3.745c0,1.837-1.729,3.853-3.278,5.438a18.42,18.42,0,0,1,1.909-.144h1.909v2.593H45.351Z"/><path d="M61.174,44.132c0-3.907,1.729-5.87,4.249-5.87s4.25,1.981,4.25,5.87c0,3.907-1.729,5.977-4.25,5.977S61.174,48.039,61.174,44.132Zm5.582,0c0-3.025-.612-3.493-1.333-3.493s-1.332.468-1.332,3.493.612,3.6,1.332,3.6S66.756,47.157,66.756,44.132Z"/><path d="M78.07,48.129c2.7-2.484,4.789-4.393,4.789-5.941a1.329,1.329,0,0,0-1.4-1.513,2.81,2.81,0,0,0-1.872,1.08L77.926,40.1a4.94,4.94,0,0,1,3.961-1.837,3.641,3.641,0,0,1,3.926,3.745c0,1.837-1.729,3.853-3.278,5.438a18.4,18.4,0,0,1,1.909-.144h1.909v2.593H78.07Z"/><path d="M95.93,48.129c2.7-2.484,4.789-4.393,4.789-5.941a1.329,1.329,0,0,0-1.4-1.513,2.812,2.812,0,0,0-1.873,1.08L95.786,40.1a4.94,4.94,0,0,1,3.961-1.837,3.64,3.64,0,0,1,3.925,3.745c0,1.837-1.728,3.853-3.276,5.438A18.381,18.381,0,0,1,102.3,47.3h1.908v2.593H95.93Z"/><circle class="cls-3" cx="19.937" cy="46.663" r="3.483"/><circle class="cls-4" cx="28.169" cy="44.763" r="3.799"/><path class="cls-3" d="M17.087,66.609a6.782,6.782,0,0,0,3.8-3.166c.6-1.213.095-1.419.633-5.7.355-2.827.548-4.257,1.266-5.066.037-.041.23-.453.634-1.266.3-.609.386-.786.316-.95-.2-.46-1.39-.338-1.583-.316a7.728,7.728,0,0,0-3.166,1.9,7.644,7.644,0,0,0-1.9,3.166,25.971,25.971,0,0,0,0,11.4Z"/><path class="cls-4" d="M29.528,62.2a4.813,4.813,0,0,1-3-1.549c-.522-.668-.168-.833-.86-3.324-.458-1.645-.7-2.477-1.28-2.894-.03-.021-.2-.249-.552-.7-.263-.335-.337-.433-.3-.536.111-.29.994-.32,1.137-.324a6.13,6.13,0,0,1,2.449.853,4.55,4.55,0,0,1,1.611,1.714,12.642,12.642,0,0,1,.794,6.756Z"/><path class="cls-4" d="M39.871,70a8.815,8.815,0,0,1-5.711-3.025c-1.172-1.445-.655-1.892-2.931-7.518-1.5-3.715-2.278-5.59-3.438-6.447-.059-.044-.446-.539-1.235-1.507-.591-.724-.758-.936-.738-1.182.054-.689,1.517-.923,1.753-.958a9.314,9.314,0,0,1,4.476,1.518,11.092,11.092,0,0,1,3.462,3.66,41.7,41.7,0,0,1,2.931,7.518A41.706,41.706,0,0,1,39.871,70Z"/></g></g></svg>