<svg xmlns="http://www.w3.org/2000/svg" xmlns:xlink="http://www.w3.org/1999/xlink" viewBox="0 0 812.197 573.235"><defs><style>.cls-1,.cls-12,.cls-16,.cls-17{fill:none;}.cls-2{fill:#001137;opacity:0.62;}.cls-3{clip-path:url(#clip-path);}.cls-4{fill:url(#linear-gradient);}.cls-5{fill:url(#linear-gradient-2);}.cls-6{fill:url(#linear-gradient-3);}.cls-7{fill:url(#linear-gradient-4);}.cls-8{fill:url(#linear-gradient-5);}.cls-9{fill:url(#linear-gradient-6);}.cls-10{fill:#ffb656;}.cls-11{fill:url(#linear-gradient-7);}.cls-12{stroke:#9d7507;}.cls-12,.cls-16,.cls-17{stroke-miterlimit:10;}.cls-13{fill:#ea227a;}.cls-14{fill:#fff;}.cls-15{fill:#00255b;}.cls-16{stroke:#ea227a;}.cls-17{stroke:#fff;}</style><clipPath id="clip-path"><rect class="cls-1" x="36.552" y="37.661" width="750" height="500"/></clipPath><linearGradient id="linear-gradient" x1="569.954" y1="-462.086" x2="119.477" y2="329.842" gradientUnits="userSpaceOnUse"><stop offset="0" stop-opacity="0"/><stop offset="0.19" stop-color="#000204" stop-opacity="0.027"/><stop offset="0.362" stop-color="#00060f" stop-opacity="0.108"/><stop offset="0.526" stop-color="#000f21" stop-opacity="0.245"/><stop offset="0.685" stop-color="#001a3b" stop-opacity="0.438"/><stop offset="0.842" stop-color="#00295c" stop-opacity="0.686"/><stop offset="0.994" stop-color="#003b84" stop-opacity="0.987"/><stop offset="1" stop-color="#003c86"/></linearGradient><linearGradient id="linear-gradient-2" x1="397.831" y1="-38.804" x2="176.935" y2="349.525" gradientUnits="userSpaceOnUse"><stop offset="0" stop-opacity="0"/><stop offset="0.018" stop-color="#000205" stop-opacity="0.04"/><stop offset="0.164" stop-color="#00142d" stop-opacity="0.333"/><stop offset="0.315" stop-color="#00224d" stop-opacity="0.574"/><stop offset="0.471" stop-color="#002e66" stop-opacity="0.762"/><stop offset="0.632" stop-color="#003678" stop-opacity="0.895"/><stop offset="0.803" stop-color="#003a83" stop-opacity="0.974"/><stop offset="1" stop-color="#003c86"/></linearGradient><linearGradient id="linear-gradient-3" x1="778.149" y1="457.898" x2="730.575" y2="541.531" xlink:href="#linear-gradient-2"/><linearGradient id="linear-gradient-4" x1="683.963" y1="184.897" x2="455.745" y2="586.098" xlink:href="#linear-gradient-2"/><linearGradient id="linear-gradient-5" x1="451.306" y1="-325.595" x2="134.149" y2="231.958" xlink:href="#linear-gradient"/><linearGradient id="linear-gradient-6" x1="1030.929" y1="-161.774" x2="431.3" y2="892.359" gradientTransform="translate(1159.861 1038.935) rotate(180)" xlink:href="#linear-gradient"/><linearGradient id="linear-gradient-7" x1="960.667" y1="-82.442" x2="451.721" y2="812.271" gradientTransform="translate(1159.861 1038.935) rotate(180)" xlink:href="#linear-gradient"/></defs><title>bg</title><g id="Layer_2" data-name="Layer 2"><g id="BACKGROUND"><image width="1000" height="732" transform="translate(36.552 37.661) scale(0.75 0.683)" xlink:href="../../gallery2.jpg"/><rect class="cls-2" x="36.552" y="37.661" width="750" height="500"/></g><g id="OBJECTS"><g class="cls-3"><path class="cls-4" d="M31.362,4.463v218.96c30.262,4.325,61.576,2.673,91.539-3.7,50.478-10.743,97.5-34.194,140.789-62.3C323.96,118.3,379.727,69.009,448.562,48.391,482.241,38.3,518.145,35.441,550.334,21.3a118.678,118.678,0,0,0,27.432-16.84Z"/><path class="cls-5" d="M38.447,271.305c36.263,9.513,73.08,11.129,109.758,2.818,34.571-7.833,68.3-22.532,99.115-39.9a443.569,443.569,0,0,0,82.788-60.814c6.954-6.421,13.493-13.2,20.886-19.11,3.242-2.593,7.073-5.047,9.8-8.169a95.591,95.591,0,0,1,10.356-10q22.165-18.91,44.689-37.392c16.916-13.824,36.44-25.129,55.906-35.013,20.423-10.37,42.873-16.171,64.588-23.138.763-.245.436-1.453-.333-1.206C517.766,45.231,499.27,50.4,481.579,57.8a202.393,202.393,0,0,0-24.864,12.848c-8.149,4.824-16.479,9.291-24.452,14.42-15.423,9.921-29.2,22.494-43.225,34.277q-11.272,9.473-22.457,19.05c-2.955,2.526-4.878,5.1-7.471,7.827-3.623,3.808-8.643,6.914-12.75,10.2-6.964,5.571-13.053,12.408-19.658,18.423q-9.429,8.584-19.3,16.668a436.767,436.767,0,0,1-43.462,31.347c-30.065,18.951-63.06,34.614-97.078,45a235.245,235.245,0,0,1-62.277,10.636c-22.311.6-44.269-2.745-65.805-8.394a.625.625,0,0,0-.332,1.2Z"/><path class="cls-6" d="M785.539,461.94c-10.8,12.473-20.728,25.653-31.267,38.34-10.285,12.383-21.549,24.02-31.973,36.326-.517.61.363,1.5.884.884,10.423-12.306,21.689-23.944,31.973-36.326,10.539-12.687,20.468-25.867,31.267-38.34.524-.606-.356-1.494-.884-.884Z"/><path class="cls-7" d="M370.446,537.162a207.385,207.385,0,0,1,33.912-94.97,265.407,265.407,0,0,1,33.264-40.016c12.079-12.1,25-23.461,39.578-32.47,3.112-1.922,6.916-3.389,9.794-5.6a100.106,100.106,0,0,1,11.55-8q11.342-6.48,23.059-12.266a530.886,530.886,0,0,1,50.19-21.508c33.04-12.3,66.948-21.3,100.7-31.3,4.984-1.477,9.918-3.12,14.769-4.986a31.293,31.293,0,0,1,8.42-1.76c2.266-.233,4.392-1.284,6.538-2.1,9.9-3.761,19.766-7.626,29.655-11.423A280.574,280.574,0,0,0,758.9,259.221c4.458-2.269,8.85-4.666,13.2-7.129a69.022,69.022,0,0,0,6.826-3.94c2.42-1.774,3.821-3.661,6.828-4.741.752-.27.428-1.478-.332-1.205-3.078,1.105-5.01,3.059-7.605,4.964-4.232,3.106-9.175,5.475-13.8,7.958a237.141,237.141,0,0,1-27.959,12.7c-8.992,3.427-17.953,6.932-26.935,10.384-4.784,1.839-9.927,4.526-15.078,4.824-4.395.254-8.194,2.27-12.38,3.733-17.341,6.057-35.437,10.136-53.033,15.428C611.378,307.389,594.2,312.866,577.244,319c-16.362,5.924-32.51,12.465-48.253,19.886q-12.559,5.919-24.744,12.589-5.984,3.285-11.86,6.76c-3.776,2.235-6.837,5.172-10.685,7.349-28.809,16.3-53.658,41.728-73.056,68.281A209.384,209.384,0,0,0,369.2,537.162c-.077.8,1.173.795,1.25,0Z"/><path class="cls-8" d="M26.9,0V138.5a127.529,127.529,0,0,0,34.356,23.891c32.846,15.537,71.089,17.414,106.628,9.851s68.646-24.075,99.122-43.859c42.433-27.547,81.7-62.248,130.158-76.765,23.712-7.1,48.99-9.117,71.653-19.07C483.871,25.939,497.973,14.3,505.221,0Z"/><path class="cls-9" d="M792.717,301.315a374.287,374.287,0,0,0-42.848,6.56c-67.192,14.3-129.784,45.516-187.4,82.921C482.24,442.877,408.008,508.485,316.383,535.93c-44.829,13.428-92.621,17.238-135.468,36.056-.331.145-.661.3-.992.444H792.717Z"/><path class="cls-10" d="M562.874,32.132h-1.013A241.068,241.068,0,0,0,632.166,183.7a241.146,241.146,0,0,0,160.551,70.882v-1.007C671.24,248.009,572.861,152.425,562.874,32.132Z"/><path class="cls-11" d="M792.717,345.338a302.875,302.875,0,0,0-88.156,5.908c-57.03,12.137-110.156,38.632-159.062,70.381-68.092,44.2-131.1,99.89-208.867,123.185-34.748,10.409-71.592,14.014-105.423,26.725H792.717Z"/><path class="cls-10" d="M244.706,543.868c15.211-68.7,76.6-120.248,149.814-120.248s134.6,51.545,149.814,120.248h1.024C530.129,474.609,468.287,422.62,394.52,422.62S258.911,474.609,243.682,543.868Z"/><circle class="cls-12" cx="653.234" cy="293.866" r="30.59" transform="translate(40.487 664.828) rotate(-55.412)"/><circle class="cls-13" cx="114.375" cy="85.597" r="1.214"/><path class="cls-13" d="M128.441,85.6a1.214,1.214,0,1,1-1.214-1.213A1.214,1.214,0,0,1,128.441,85.6Z"/><path class="cls-13" d="M141.292,85.6a1.214,1.214,0,1,1-1.213-1.213A1.213,1.213,0,0,1,141.292,85.6Z"/><circle class="cls-13" cx="152.931" cy="85.597" r="1.214"/><circle class="cls-14" cx="165.783" cy="85.597" r="1.214"/><path class="cls-13" d="M179.848,85.6a1.214,1.214,0,1,1-1.213-1.213A1.213,1.213,0,0,1,179.848,85.6Z"/><circle class="cls-13" cx="191.487" cy="85.597" r="1.214"/><path class="cls-14" d="M115.589,99.819a1.214,1.214,0,1,1-1.214-1.214A1.214,1.214,0,0,1,115.589,99.819Z"/><path class="cls-13" d="M128.441,99.819a1.214,1.214,0,1,1-1.214-1.214A1.214,1.214,0,0,1,128.441,99.819Z"/><path class="cls-13" d="M141.292,99.819a1.214,1.214,0,1,1-1.213-1.214A1.213,1.213,0,0,1,141.292,99.819Z"/><path class="cls-13" d="M154.144,99.819a1.214,1.214,0,1,1-1.213-1.214A1.213,1.213,0,0,1,154.144,99.819Z"/><path class="cls-13" d="M167,99.819a1.214,1.214,0,1,1-1.213-1.214A1.213,1.213,0,0,1,167,99.819Z"/><path class="cls-13" d="M179.848,99.819a1.214,1.214,0,1,1-1.213-1.214A1.213,1.213,0,0,1,179.848,99.819Z"/><path class="cls-13" d="M192.7,99.819a1.214,1.214,0,1,1-1.213-1.214A1.213,1.213,0,0,1,192.7,99.819Z"/><circle class="cls-13" cx="114.375" cy="114.04" r="1.214"/><path class="cls-13" d="M128.441,114.04a1.214,1.214,0,1,1-1.214-1.214A1.214,1.214,0,0,1,128.441,114.04Z"/><path class="cls-14" d="M141.292,114.04a1.214,1.214,0,1,1-1.213-1.214A1.213,1.213,0,0,1,141.292,114.04Z"/><circle class="cls-13" cx="152.931" cy="114.04" r="1.214"/><circle class="cls-13" cx="165.783" cy="114.04" r="1.214"/><path class="cls-13" d="M179.848,114.04a1.214,1.214,0,1,1-1.213-1.214A1.213,1.213,0,0,1,179.848,114.04Z"/><circle class="cls-13" cx="191.487" cy="114.04" r="1.214"/><path class="cls-13" d="M115.589,128.261a1.214,1.214,0,1,1-1.214-1.214A1.214,1.214,0,0,1,115.589,128.261Z"/><path class="cls-13" d="M128.441,128.261a1.214,1.214,0,1,1-1.214-1.214A1.214,1.214,0,0,1,128.441,128.261Z"/><path class="cls-13" d="M141.292,128.261a1.214,1.214,0,1,1-1.213-1.214A1.213,1.213,0,0,1,141.292,128.261Z"/><path class="cls-13" d="M154.144,128.261a1.214,1.214,0,1,1-1.213-1.214A1.213,1.213,0,0,1,154.144,128.261Z"/><path class="cls-14" d="M167,128.261a1.214,1.214,0,1,1-1.213-1.214A1.213,1.213,0,0,1,167,128.261Z"/><path class="cls-13" d="M179.848,128.261a1.214,1.214,0,1,1-1.213-1.214A1.213,1.213,0,0,1,179.848,128.261Z"/><path class="cls-13" d="M192.7,128.261a1.214,1.214,0,1,1-1.213-1.214A1.213,1.213,0,0,1,192.7,128.261Z"/><circle class="cls-13" cx="114.375" cy="142.482" r="1.214"/><path class="cls-13" d="M128.441,142.482a1.214,1.214,0,1,1-1.214-1.214A1.215,1.215,0,0,1,128.441,142.482Z"/><path class="cls-13" d="M141.292,142.482a1.214,1.214,0,1,1-1.213-1.214A1.214,1.214,0,0,1,141.292,142.482Z"/><circle class="cls-13" cx="152.931" cy="142.482" r="1.214"/><circle class="cls-13" cx="165.783" cy="142.482" r="1.214"/><path class="cls-13" d="M179.848,142.482a1.214,1.214,0,1,1-1.213-1.214A1.214,1.214,0,0,1,179.848,142.482Z"/><circle class="cls-13" cx="191.487" cy="142.482" r="1.214"/><circle class="cls-13" cx="114.375" cy="156.703" r="1.214"/><path class="cls-13" d="M128.441,156.7a1.214,1.214,0,1,1-1.214-1.214A1.215,1.215,0,0,1,128.441,156.7Z"/><path class="cls-13" d="M141.292,156.7a1.214,1.214,0,1,1-1.213-1.214A1.214,1.214,0,0,1,141.292,156.7Z"/><circle class="cls-14" cx="152.931" cy="156.703" r="1.214"/><circle class="cls-13" cx="165.783" cy="156.703" r="1.214"/><path class="cls-13" d="M179.848,156.7a1.214,1.214,0,1,1-1.213-1.214A1.214,1.214,0,0,1,179.848,156.7Z"/><circle class="cls-13" cx="191.487" cy="156.703" r="1.214"/><path class="cls-13" d="M115.589,170.924a1.214,1.214,0,1,1-1.214-1.213A1.215,1.215,0,0,1,115.589,170.924Z"/><path class="cls-13" d="M128.441,170.924a1.214,1.214,0,1,1-1.214-1.213A1.215,1.215,0,0,1,128.441,170.924Z"/><path class="cls-13" d="M141.292,170.924a1.214,1.214,0,1,1-1.213-1.213A1.214,1.214,0,0,1,141.292,170.924Z"/><path class="cls-13" d="M154.144,170.924a1.214,1.214,0,1,1-1.213-1.213A1.214,1.214,0,0,1,154.144,170.924Z"/><path class="cls-13" d="M167,170.924a1.214,1.214,0,1,1-1.213-1.213A1.214,1.214,0,0,1,167,170.924Z"/><path class="cls-14" d="M179.848,170.924a1.214,1.214,0,1,1-1.213-1.213A1.214,1.214,0,0,1,179.848,170.924Z"/><path class="cls-13" d="M192.7,170.924a1.214,1.214,0,1,1-1.213-1.213A1.214,1.214,0,0,1,192.7,170.924Z"/><circle class="cls-13" cx="114.375" cy="185.145" r="1.214"/><path class="cls-14" d="M128.441,185.145a1.214,1.214,0,1,1-1.214-1.213A1.214,1.214,0,0,1,128.441,185.145Z"/><path class="cls-13" d="M141.292,185.145a1.214,1.214,0,1,1-1.213-1.213A1.213,1.213,0,0,1,141.292,185.145Z"/><circle class="cls-13" cx="152.931" cy="185.145" r="1.214"/><circle class="cls-13" cx="165.783" cy="185.145" r="1.214"/><path class="cls-13" d="M179.848,185.145a1.214,1.214,0,1,1-1.213-1.213A1.213,1.213,0,0,1,179.848,185.145Z"/><circle class="cls-13" cx="191.487" cy="185.145" r="1.214"/><circle class="cls-13" cx="608.383" cy="388.423" r="1.214"/><circle class="cls-13" cx="621.235" cy="388.423" r="1.214"/><path class="cls-13" d="M635.3,388.423a1.214,1.214,0,1,1-1.214-1.214A1.214,1.214,0,0,1,635.3,388.423Z"/><path class="cls-13" d="M648.153,388.423a1.214,1.214,0,1,1-1.214-1.214A1.214,1.214,0,0,1,648.153,388.423Z"/><path class="cls-14" d="M661.005,388.423a1.214,1.214,0,1,1-1.214-1.214A1.214,1.214,0,0,1,661.005,388.423Z"/><circle class="cls-13" cx="672.643" cy="388.423" r="1.214"/><path class="cls-13" d="M686.708,388.423a1.214,1.214,0,1,1-1.213-1.214A1.213,1.213,0,0,1,686.708,388.423Z"/><circle class="cls-14" cx="608.383" cy="402.644" r="1.214"/><circle class="cls-13" cx="621.235" cy="402.644" r="1.214"/><path class="cls-13" d="M635.3,402.644a1.214,1.214,0,1,1-1.214-1.214A1.214,1.214,0,0,1,635.3,402.644Z"/><path class="cls-13" d="M648.153,402.644a1.214,1.214,0,1,1-1.214-1.214A1.214,1.214,0,0,1,648.153,402.644Z"/><path class="cls-13" d="M661.005,402.644a1.214,1.214,0,1,1-1.214-1.214A1.214,1.214,0,0,1,661.005,402.644Z"/><circle class="cls-13" cx="672.643" cy="402.644" r="1.214"/><path class="cls-13" d="M686.708,402.644a1.214,1.214,0,1,1-1.213-1.214A1.213,1.213,0,0,1,686.708,402.644Z"/><path class="cls-13" d="M609.6,416.865a1.214,1.214,0,1,1-1.214-1.214A1.215,1.215,0,0,1,609.6,416.865Z"/><path class="cls-13" d="M622.449,416.865a1.214,1.214,0,1,1-1.214-1.214A1.215,1.215,0,0,1,622.449,416.865Z"/><path class="cls-14" d="M635.3,416.865a1.214,1.214,0,1,1-1.214-1.214A1.215,1.215,0,0,1,635.3,416.865Z"/><path class="cls-13" d="M648.153,416.865a1.214,1.214,0,1,1-1.214-1.214A1.215,1.215,0,0,1,648.153,416.865Z"/><path class="cls-13" d="M661.005,416.865a1.214,1.214,0,1,1-1.214-1.214A1.215,1.215,0,0,1,661.005,416.865Z"/><path class="cls-13" d="M673.856,416.865a1.214,1.214,0,1,1-1.213-1.214A1.214,1.214,0,0,1,673.856,416.865Z"/><path class="cls-13" d="M686.708,416.865a1.214,1.214,0,1,1-1.213-1.214A1.214,1.214,0,0,1,686.708,416.865Z"/><circle class="cls-13" cx="608.383" cy="431.086" r="1.214"/><circle class="cls-13" cx="621.235" cy="431.086" r="1.214"/><path class="cls-13" d="M635.3,431.086a1.214,1.214,0,1,1-1.214-1.213A1.215,1.215,0,0,1,635.3,431.086Z"/><path class="cls-13" d="M648.153,431.086a1.214,1.214,0,1,1-1.214-1.213A1.215,1.215,0,0,1,648.153,431.086Z"/><path class="cls-14" d="M661.005,431.086a1.214,1.214,0,1,1-1.214-1.213A1.215,1.215,0,0,1,661.005,431.086Z"/><circle class="cls-13" cx="672.643" cy="431.086" r="1.214"/><path class="cls-13" d="M686.708,431.086a1.214,1.214,0,1,1-1.213-1.213A1.214,1.214,0,0,1,686.708,431.086Z"/><path class="cls-13" d="M609.6,445.307a1.214,1.214,0,1,1-1.214-1.213A1.214,1.214,0,0,1,609.6,445.307Z"/><path class="cls-13" d="M622.449,445.307a1.214,1.214,0,1,1-1.214-1.213A1.214,1.214,0,0,1,622.449,445.307Z"/><path class="cls-13" d="M635.3,445.307a1.214,1.214,0,1,1-1.214-1.213A1.214,1.214,0,0,1,635.3,445.307Z"/><path class="cls-13" d="M648.153,445.307a1.214,1.214,0,1,1-1.214-1.213A1.214,1.214,0,0,1,648.153,445.307Z"/><path class="cls-13" d="M661.005,445.307a1.214,1.214,0,1,1-1.214-1.213A1.214,1.214,0,0,1,661.005,445.307Z"/><path class="cls-13" d="M673.856,445.307a1.214,1.214,0,1,1-1.213-1.213A1.213,1.213,0,0,1,673.856,445.307Z"/><path class="cls-13" d="M686.708,445.307a1.214,1.214,0,1,1-1.213-1.213A1.213,1.213,0,0,1,686.708,445.307Z"/><circle class="cls-13" cx="608.383" cy="459.528" r="1.214"/><circle class="cls-13" cx="621.235" cy="459.528" r="1.214"/><path class="cls-13" d="M635.3,459.528a1.214,1.214,0,1,1-1.214-1.213A1.214,1.214,0,0,1,635.3,459.528Z"/><path class="cls-14" d="M648.153,459.528a1.214,1.214,0,1,1-1.214-1.213A1.214,1.214,0,0,1,648.153,459.528Z"/><path class="cls-13" d="M661.005,459.528a1.214,1.214,0,1,1-1.214-1.213A1.214,1.214,0,0,1,661.005,459.528Z"/><circle class="cls-13" cx="672.643" cy="459.528" r="1.214"/><path class="cls-13" d="M686.708,459.528a1.214,1.214,0,1,1-1.213-1.213A1.213,1.213,0,0,1,686.708,459.528Z"/><circle class="cls-13" cx="608.383" cy="473.75" r="1.214"/><circle class="cls-13" cx="621.235" cy="473.75" r="1.214"/><path class="cls-13" d="M635.3,473.75a1.214,1.214,0,1,1-1.214-1.214A1.214,1.214,0,0,1,635.3,473.75Z"/><path class="cls-13" d="M648.153,473.75a1.214,1.214,0,1,1-1.214-1.214A1.214,1.214,0,0,1,648.153,473.75Z"/><path class="cls-13" d="M661.005,473.75a1.214,1.214,0,1,1-1.214-1.214A1.214,1.214,0,0,1,661.005,473.75Z"/><circle class="cls-14" cx="672.643" cy="473.75" r="1.214"/><path class="cls-13" d="M686.708,473.75a1.214,1.214,0,1,1-1.213-1.214A1.213,1.213,0,0,1,686.708,473.75Z"/><path class="cls-13" d="M609.6,487.971a1.214,1.214,0,1,1-1.214-1.214A1.214,1.214,0,0,1,609.6,487.971Z"/><path class="cls-14" d="M622.449,487.971a1.214,1.214,0,1,1-1.214-1.214A1.214,1.214,0,0,1,622.449,487.971Z"/><path class="cls-13" d="M635.3,487.971a1.214,1.214,0,1,1-1.214-1.214A1.214,1.214,0,0,1,635.3,487.971Z"/><path class="cls-13" d="M648.153,487.971a1.214,1.214,0,1,1-1.214-1.214A1.214,1.214,0,0,1,648.153,487.971Z"/><path class="cls-13" d="M661.005,487.971a1.214,1.214,0,1,1-1.214-1.214A1.214,1.214,0,0,1,661.005,487.971Z"/><path class="cls-13" d="M673.856,487.971a1.214,1.214,0,1,1-1.213-1.214A1.213,1.213,0,0,1,673.856,487.971Z"/><path class="cls-13" d="M686.708,487.971a1.214,1.214,0,1,1-1.213-1.214A1.213,1.213,0,0,1,686.708,487.971Z"/><path class="cls-15" d="M812.2,6.433H747.646c.105.147.2.282.307.431l-1.989,1.469-1.388-1.9h-6.16l-.844.609-.447-.609H712.313l2.016,3.023-3.121,2.3-2.533-3.353,3.271-1.974h-7.028a5.983,5.983,0,0,0,2.087,1.706c-2.354.26-3.9,1.359-4.295,3.518-.413,2.268.8,3.817,2.92,4.818-2.952.636-4.3,1.911-4.434,4.06a3.9,3.9,0,0,0,2.732,4,5.208,5.208,0,0,0,3.134-.2A8.28,8.28,0,0,0,709.21,22.4c.62,1.116,1.355,2.437,2.108,3.79a4.607,4.607,0,0,0-3.269,3.045,4.38,4.38,0,0,0,2.549,4.91c.176.087.283.314.419.481a3.971,3.971,0,0,0-4.348,3.346,4.072,4.072,0,0,0,2.621,4.5c2.191.779,4.047-.164,5.535-2.9a4.571,4.571,0,0,0,2.893,4.6c-3.031.918-4.29,2.207-4.294,4.307a3.862,3.862,0,0,0,2.918,3.856,6.435,6.435,0,0,0,3.136-.306,10.566,10.566,0,0,0,2.312-1.3,4.748,4.748,0,0,0,2.774,3.329c-2.882.767-4.129,1.979-4.27,4.047A3.881,3.881,0,0,0,723,62.12a6.163,6.163,0,0,0,3.277-.226,9.006,9.006,0,0,0,2.284-1.551c-.039,1.331,1.123,2.626,3.018,3.645-2.355.32-3.929,1.3-4.306,3.535-.382,2.27.873,3.681,2.849,4.728-2.531.224-4,1.433-4.25,3.381a3.936,3.936,0,0,0,2.461,4.3,3.692,3.692,0,0,0,4.677-1.512,5.335,5.335,0,0,0,.466-3.373c-.241-1.006-1.246-1.827-1.925-2.742a4.323,4.323,0,0,0,3.6-2.829c.068-.185.319-.3.486-.449-.581,2.061.673,3.3,2.084,4.476-2.882,1.268-3.9,2.655-3.567,4.815a3.951,3.951,0,0,0,3.451,3.4,3.993,3.993,0,0,0,4.226-2.382c.819-1.889.207-3.607-1.731-5.228l3.243-2.134,2.678,3.115A4.177,4.177,0,0,0,742.384,79a3.986,3.986,0,0,0,2.288,3.876c2.348,1.09,4.132.145,5.659-1.869.458,2.2,1.645,3.562,3.684,3.825,2.166.28,3.648-.884,4.641-3a4.715,4.715,0,0,0,3.058,4.479c-.6.146-.982.226-1.359.333a4.043,4.043,0,0,0,.211,7.883,4.018,4.018,0,0,0,4.481-2.155c.188-.357.42-.691.636-1.033-.093,2.3.8,4.046,2.68,4.509a6.169,6.169,0,0,0,3.278-.227,9.945,9.945,0,0,0,2.382-1.494,3.889,3.889,0,0,0,3.34,3.455c2.344.407,3.832-.821,4.83-2.918.494,2.763,1.606,4.181,3.634,4.455,2.274.308,3.757-.87,4.706-2.938.553,2.779,1.638,4.157,3.647,4.43,2.274.308,3.758-.868,4.778-3.093a4.777,4.777,0,0,0,2.8,4.453c-2.737.594-4.024,1.965-4.057,4.035a4.008,4.008,0,0,0,2.854,3.92,4.053,4.053,0,0,0,4.687-2.008c.982-1.894.394-3.712-1.63-5.465l3.3-2.166,2.505,3.282c-2.273.716-3.4,2.07-3.327,4.176a3.952,3.952,0,0,0,2.953,3.681,4.193,4.193,0,0,0,3.155-.464v-6.813c-.06-.067-.118-.133-.166-.195l.166-.145V79.064l-1.856,1.308c-.6-.908-1.243-1.878-1.886-2.849l2.733-1.828L812.2,77.04V71.576l-.288.21c-.6-.886-1.165-1.732-1.728-2.57L812.2,67.85v-6.5l-.278-.414.278-.191ZM805.725,58l1.513,2.084-2.158,1.593c-.483-.734-.968-1.469-1.468-2.226Zm-.2-6.659,1.643-1.178,1.12,1.574-1.646,1.34Zm.5,17.158-2.258,1.492-1.727-2.31,2.22-1.6ZM801.66,32.442l.956,1.242-1.286.887c-.3-.412-.547-.761-.868-1.209Zm-1.449,8.183,1.132,1.442-1.554,1.181-1.055-1.579Zm-1.417,8.081,1.1,1.536-1.721,1.4-1.239-1.674Zm-1.4,7.967,1.482,1.91c-.631.433-1.261.863-1.955,1.338l-1.273-1.84Zm-1.887,12.055-1.736-2.5,2.217-1.358,1.752,2.191Zm1.169,6.661-2.759,1.982-1.859-2.83,2.7-1.783Zm-3.345-44.5.912,1.3-1.293.942-.9-1.282ZM791.881,39.1l1.1,1.507-1.349.966-1.145-1.567Zm-1.365,8.248,1.26,1.629-1.671,1.2c-.42-.579-.812-1.121-1.256-1.735C789.4,48.086,789.919,47.745,790.516,47.353Zm-1.454,8.086c.478.638.891,1.188,1.362,1.815l-1.761,1.455-1.332-2.053Zm-1.929,11.8L785.4,64.753l2.444-1.66c.582.823,1.144,1.618,1.693,2.4Zm1.19,6.647L785.556,75.9l-1.886-2.854,2.731-1.777ZM785.07,29.507l.892,1.2-1.146.824-.965-1.149ZM783.6,37.686l1.164,1.5-1.428,1.2-1.152-1.791Zm-1.224,7.947,1.373,1.878-1.922,1.433c-.445-.663-.9-1.338-1.368-2.04Zm-1.4,8.091,1.3,1.956-2.059,1.65-1.526-2.07ZM778.722,65.8c-.5-.77-.989-1.541-1.492-2.328l2.316-1.72,1.709,2.233Zm1.267,6.6-2.783,2.031-1.932-2.9,2.765-1.837ZM776.86,27.8l1.163,1.423-1.54,1.115c-.35-.514-.673-.986-1.056-1.547Zm-1.4,8.124,1.284,1.7-1.783,1.318-1.235-1.822Zm-1.408,8.122c.456.642.906,1.275,1.388,1.955l-2.007,1.524L771.985,45.4Zm-17.369.7L755,42.368l2.36-1.553c.5.715,1.03,1.462,1.585,2.248Zm.988,6.71-2.513,1.873c-.63-.893-1.267-1.794-1.869-2.648l2.638-1.726Zm3.752,15.285,2.034,2.672-3.063,2.218-1.722-2.917Zm.5-3.613c-.6-.848-1.24-1.749-1.852-2.614l2.749-1.809c.5.754,1.092,1.629,1.621,2.417Zm1.615-8.439c-.551-.784-1.133-1.613-1.752-2.5l2.475-1.638,1.633,2.374Zm1.528-8.585-1.561-2.213,2.2-1.461c.473.672.952,1.356,1.488,2.119Zm4.618,22.019,2.014,2.786L768.808,73l-1.956-2.984Zm.664-3.709-1.55-2.442,2.351-1.729c.512.767,1.054,1.576,1.582,2.366Zm1.584-8.314c-.53-.752-1.092-1.55-1.676-2.381l2.336-1.559,1.563,2.262Zm-1.9-38.153.991,1.376-1.4,1.117-1.066-1.5Zm-1.508,8.168,1.223,1.623-1.66,1.266-1.2-1.749Zm-1.374,8.174,1.3,1.855-1.84,1.4-1.428-1.993ZM763.119,8.3l.928,1.254-1.41,1.119-.994-1.3Zm-1.338,8.166c.373.478.722.925,1.111,1.425l-1.674,1.255-1.03-1.519Zm-1.537,7.981,1.353,1.821-1.882,1.392-1.387-1.953Zm-1.419,8.161,1.412,2.048L758.2,36.185c-.541-.768-1.02-1.448-1.522-2.159Zm-3.972-26c.411.578.776,1.093,1.221,1.721l-1.732,1.278c-.42-.586-.822-1.146-1.292-1.8Zm-1.464,8.228,1.125,1.71-1.668,1.285-1.211-1.765Zm-1.433,7.918c.5.719.942,1.364,1.419,2.054l-2.019,1.524L749.819,24.2Zm-1.465,8.209L752.06,33.2l-2.237,1.632-1.674-2.3Zm-1.466,8.19c.523.752,1.1,1.58,1.7,2.441l-2.424,1.8-1.817-2.546ZM749.452,50c-.884.654-1.812,1.343-2.694,2l-1.947-2.852,2.781-1.811ZM745.1,13.119l1.239,1.917-1.992,1.574-1.51-1.986Zm-1.41,8.126,1.5,2.082-2.271,1.691-1.42-2.141Zm-1.523,8.036,1.668,2.463-2.409,1.772L739.6,30.992Q740.894,30.13,742.169,29.281Zm.37,10.881-2.433,1.685-1.932-2.6,2.522-1.8C741.292,38.326,741.942,39.282,742.539,40.162Zm-5.757-28.757c.511.758,1.066,1.58,1.62,2.4q-1.178.862-2.35,1.732l-1.764-2.454ZM735.321,19.6c.491.785,1.007,1.608,1.512,2.413l-2.1,1.536-1.649-2.313Zm-1.39,8.238,1.779,2.429-2.469,1.759-1.929-2.6ZM731.8,40.823l-2.1-3.113,2.768-1.634,2.055,2.658Zm1.588,6.231-3.1,2.306-2.313-3.34,3.274-1.967ZM728.459,9.663c.579.87,1.173,1.765,1.8,2.708l-2.376,1.669-2-2.573ZM727.1,18.211l1.687,2.359-2.411,2.078-2-2.819Zm-1.192,7.879,1.962,2.7-2.975,2.255-1.845-2.948C723.931,27.474,724.945,26.764,725.905,26.09Zm.641,11.1-3.132,2.327-2.354-3.349,3.327-2.005ZM720.255,8.26l2.021,2.687-2.718,2.126L717.38,9.915Zm-1.271,8.02,2.107,3-3.031,2.268-2.272-3.268Zm-1.416,8.092,1.849,3.057-2.9,2.4-1.975-3.269Zm-8.117-3.931a4.477,4.477,0,0,0-3.016-3.757,4.828,4.828,0,0,0,4.134-2.414l2.405,3.546Zm5.368,17.921a4.069,4.069,0,0,0-3.738-3.73c2.052-.211,4.04-.539,4.841-2.541.89,1.3,1.806,2.629,2.506,3.65Zm6.889,9.815a4.522,4.522,0,0,0-2.983-3.709,4.856,4.856,0,0,0,4.087-2.431l2.38,3.573Zm6.858,9.89a4.2,4.2,0,0,0-2.6-3.545l3.868-2.354,2.249,3.267Zm7.07,10.956c-.438-2.057-.849-4.132-3.35-4.871a4.714,4.714,0,0,0,4.25-2.479l2.6,3.815C737.566,65.874,735.853,66.676,735.636,69.023Zm1.53-9.7c-.718-1.06-1.59-2.348-2.348-3.469l3.091-1.732,2.181,2.81Zm1.415-8.947L736.532,47.6l2.8-1.669,1.987,2.606Zm5.336,18.2-2.4-2.826,3.313-1.872,1.851,2.678Zm1.54-8.3c-.68-.9-1.438-1.912-2.166-2.88.911-.62,1.907-1.3,2.825-1.919l2.109,2.95ZM752.4,77.193a10.6,10.6,0,0,0-1.488,1.339l-2.678-3.267,3.345-2.224,2.454,3.475A8.117,8.117,0,0,0,752.4,77.193Zm-.364-6.862L750.2,67.158l2.831-1.952,1.849,2.813Zm1.553-8.383-1.974-2.973,2.857-1.879,1.929,2.751Zm5.331,18.28-2.332-3.469,3.349-2.053c.684.941,1.538,2.118,2.261,3.114Zm6.78,10.977c-.374-2.01-.865-3.941-3.259-4.664a4.708,4.708,0,0,0,4.241-2.458l2.689,3.826A4.248,4.248,0,0,0,765.7,91.205Zm1.576-9.515-2.186-3.419,3.156-1.964c.739.994,1.543,2.073,2.222,2.985Zm6.741,11.053c-.223-2.357-1.052-3.874-2.569-4.475L775.18,85.9c.728,1.009,1.631,2.262,2.5,3.47A4.559,4.559,0,0,0,774.017,92.743Zm1.614-9.654c-.624-.98-1.385-2.177-2.072-3.258l3.065-2.006,2.155,2.974ZM782.3,93.373a4.29,4.29,0,0,0-2.443-3.624l3.678-2.316,2.314,3.218Zm1.693-8.83c-.6-.946-1.337-2.119-2.027-3.213l2.981-1.99,2.184,2.926Zm6.7,11.249c-.095-2.389-.985-3.787-2.395-4.52l3.581-2.352,2.5,3.44A4.594,4.594,0,0,0,790.689,95.792Zm1.661-9.766-2-3.22,2.972-1.961,2.14,2.906Zm6.738,11.048c-.2-2.159-.981-3.656-2.484-4.306l3.671-2.34,2.533,3.435A4.488,4.488,0,0,0,799.088,97.074Zm1.631-9.523L798.7,84.28l2.745-1.718,2.211,2.748Zm1.485-8.936-1.856-2.584,2.587-1.566,1.851,2.412Zm5.29,18.612-2.421-3.166,3.312-1.846c.752.912,1.663,2.015,2.458,2.976Zm2.245-13.448c.72.977,1.51,2.047,2.242,3.039-.9.583-2.008,1.294-2.953,1.9l-2.138-2.948Zm-1.563-39.053c-.355-.5-.7-1-1.121-1.59l1.573-1.041,1.127,1.509Zm1.573-8.643c-.308-.4-.592-.77-.977-1.269l1.285-.86.926,1.26Z"/><path class="cls-15" d="M708.05,29.23c-.576,2.181-1.761,3.752-4.315,3.988,2.463,1.911,3.117,3.768,2.141,5.709a4.038,4.038,0,0,1-4.669,2.048,3.962,3.962,0,0,1-2.812-4.229c.177-2.142,1.669-3.362,4.464-3.628-1.892-.749-3.084-2.024-3.077-4.122a4.033,4.033,0,0,1,7.911-1c.12.429.224.861.336,1.288Z"/><path class="cls-15" d="M748.987,88.1c1.344-2.583,3.129-3.55,5.305-2.874a4.052,4.052,0,0,1,2.762,4.14,3.978,3.978,0,0,1-3.645,3.7c-2.2.2-3.647-1.019-4.485-3.724-.879.663-1.7,1.677-2.7,1.931a5.342,5.342,0,0,1-3.38-.432,3.716,3.716,0,0,1-1.578-4.664,3.972,3.972,0,0,1,4.42-2.506C747.7,83.976,748.847,85.52,748.987,88.1Z"/><path class="cls-15" d="M698.516,6.867a4.024,4.024,0,1,1-4.093,3.876A4.018,4.018,0,0,1,698.516,6.867Z"/><path class="cls-15" d="M793.278,108.869a3.986,3.986,0,1,1,4.039-3.892A3.94,3.94,0,0,1,793.278,108.869Z"/><path class="cls-15" d="M788.962,103.4a3.985,3.985,0,1,1-3.944-3.988A3.94,3.94,0,0,1,788.962,103.4Z"/><path class="cls-15" d="M716.09,60.828a3.985,3.985,0,1,1,3.942-3.989A3.943,3.943,0,0,1,716.09,60.828Z"/><path class="cls-15" d="M726.88,66.651a3.969,3.969,0,1,1-3.971-3.93A3.916,3.916,0,0,1,726.88,66.651Z"/><path class="cls-15" d="M772.211,100.442a3.944,3.944,0,1,1-3.911-3.977A3.874,3.874,0,0,1,772.211,100.442Z"/><path class="cls-15" d="M700.907,19.177a3.957,3.957,0,1,1-4.024-3.888A3.9,3.9,0,0,1,700.907,19.177Z"/><path class="cls-15" d="M776.581,105.87a3.97,3.97,0,1,1,4.011-3.89A3.915,3.915,0,0,1,776.581,105.87Z"/><path class="cls-15" d="M713.154,47.067a3.97,3.97,0,1,1-3.861-4.04A3.914,3.914,0,0,1,713.154,47.067Z"/><path class="cls-15" d="M759.974,95A3.915,3.915,0,1,1,756,98.78,3.863,3.863,0,0,1,759.974,95Z"/><path class="cls-15" d="M699.358,27.626a3.9,3.9,0,1,1-3.8-3.925A3.864,3.864,0,0,1,699.358,27.626Z"/><path class="cls-15" d="M755.748,97.409a3.893,3.893,0,1,1-3.872-3.877A3.863,3.863,0,0,1,755.748,97.409Z"/><path class="cls-15" d="M795.715,112.927a3.875,3.875,0,1,1-3.884-3.86A3.886,3.886,0,0,1,795.715,112.927Z"/><path class="cls-15" d="M787.36,111.477a3.875,3.875,0,1,1-3.842-3.9A3.886,3.886,0,0,1,787.36,111.477Z"/><path class="cls-15" d="M725.3,75a3.878,3.878,0,1,1-3.921-3.835A3.868,3.868,0,0,1,725.3,75Z"/><path class="cls-15" d="M718.448,65.224a3.893,3.893,0,1,1-3.829-3.918A3.862,3.862,0,0,1,718.448,65.224Z"/><path class="cls-15" d="M736.575,82.179a3.907,3.907,0,1,1-3.845,3.895A3.86,3.86,0,0,1,736.575,82.179Z"/><path class="cls-15" d="M707.643,51.459a3.893,3.893,0,1,1-3.843,3.9A3.864,3.864,0,0,1,707.643,51.459Z"/><path class="cls-15" d="M704.716,45.518a3.887,3.887,0,1,1-3.835-3.9A3.866,3.866,0,0,1,704.716,45.518Z"/><path class="cls-15" d="M692.586,6.433h-5a3.887,3.887,0,1,0,5,0Z"/><path class="cls-15" d="M747.361,95.908a3.861,3.861,0,1,1-3.923-3.835A3.9,3.9,0,0,1,747.361,95.908Z"/><path class="cls-15" d="M693.915,39.517a3.861,3.861,0,1,1,3.912-3.846A3.905,3.905,0,0,1,693.915,39.517Z"/><path class="cls-15" d="M775.134,114.116a3.86,3.86,0,1,1,3.856-3.9A3.9,3.9,0,0,1,775.134,114.116Z"/><path class="cls-15" d="M732.142,84.645a3.861,3.861,0,1,1-3.846-3.911A3.9,3.9,0,0,1,732.142,84.645Z"/><path class="cls-15" d="M692.456,17.805a3.861,3.861,0,1,1-3.846-3.912A3.905,3.905,0,0,1,692.456,17.805Z"/><path class="cls-15" d="M804.062,114.408a3.867,3.867,0,1,1-3.929-3.841A3.891,3.891,0,0,1,804.062,114.408Z"/><path class="cls-15" d="M762.243,107.221a3.823,3.823,0,1,1-3.837-3.772A3.909,3.909,0,0,1,762.243,107.221Z"/><path class="cls-15" d="M766.718,104.913a3.852,3.852,0,1,1-3.794,3.834A3.9,3.9,0,0,1,766.718,104.913Z"/><path class="cls-15" d="M706.2,59.883a3.823,3.823,0,1,1-3.817,3.792A3.909,3.909,0,0,1,706.2,59.883Z"/><path class="cls-15" d="M812.2,114.708a3.95,3.95,0,0,0-3.449-2.63A3.853,3.853,0,1,0,812.2,117.1Z"/><path class="cls-15" d="M735.119,98.251a3.81,3.81,0,1,1,3.837-3.784A3.891,3.891,0,0,1,735.119,98.251Z"/><path class="cls-15" d="M690.9,26.076a3.8,3.8,0,1,1-3.831-3.766A3.874,3.874,0,0,1,690.9,26.076Z"/><path class="cls-15" d="M678.281,6.433a3.666,3.666,0,0,0-.315,1.456,3.767,3.767,0,1,0,7.533-.04,3.694,3.694,0,0,0-.318-1.416Z"/><path class="cls-15" d="M699.388,50.049a3.811,3.811,0,1,1-3.861,3.76A3.893,3.893,0,0,1,699.388,50.049Z"/><path class="cls-15" d="M696.258,44.056a3.784,3.784,0,1,1-3.777-3.827A3.849,3.849,0,0,1,696.258,44.056Z"/><path class="cls-15" d="M716.874,73.521a3.81,3.81,0,1,1-3.843-3.778A3.891,3.891,0,0,1,716.874,73.521Z"/><path class="cls-15" d="M719.9,79.319a3.783,3.783,0,1,1-3.755,3.848A3.849,3.849,0,0,1,719.9,79.319Z"/><path class="cls-15" d="M754.13,105.763a3.767,3.767,0,1,1-3.82-3.749A3.815,3.815,0,0,1,754.13,105.763Z"/><path class="cls-15" d="M697.83,65.868a3.655,3.655,0,1,1,3.67-3.675A3.583,3.583,0,0,1,697.83,65.868Z"/><path class="cls-15" d="M726.745,96.651a3.7,3.7,0,1,1,3.747-3.619A3.665,3.665,0,0,1,726.745,96.651Z"/><path class="cls-15" d="M708.363,72.015a3.654,3.654,0,1,1-3.737-3.608A3.583,3.583,0,0,1,708.363,72.015Z"/><path class="cls-15" d="M683.908,16.329a3.668,3.668,0,1,1-3.6-3.735A3.6,3.6,0,0,1,683.908,16.329Z"/><path class="cls-15" d="M689.3,34.531a3.685,3.685,0,1,1-3.617-3.752A3.635,3.635,0,0,1,689.3,34.531Z"/><path class="cls-15" d="M807,127.935a3.655,3.655,0,1,1,3.714-3.632A3.585,3.585,0,0,1,807,127.935Z"/><path class="cls-15" d="M802.388,122.812a3.685,3.685,0,1,1-3.661-3.707A3.632,3.632,0,0,1,802.388,122.812Z"/><path class="cls-15" d="M790.316,124.981a3.684,3.684,0,1,1,3.717-3.652A3.633,3.633,0,0,1,790.316,124.981Z"/><path class="cls-15" d="M781.988,116.121a3.684,3.684,0,1,1-3.679,3.689A3.629,3.629,0,0,1,781.988,116.121Z"/><path class="cls-15" d="M777.306,118.281a3.668,3.668,0,1,1-3.7-3.636A3.6,3.6,0,0,1,777.306,118.281Z"/><path class="cls-15" d="M742.04,107.972a3.684,3.684,0,1,1,3.653-3.715A3.632,3.632,0,0,1,742.04,107.972Z"/><path class="cls-15" d="M691.025,56a3.631,3.631,0,1,1,3.589-3.711A3.561,3.561,0,0,1,691.025,56Z"/><path class="cls-15" d="M711.623,78.277a3.632,3.632,0,1,1-3.682,3.617A3.565,3.565,0,0,1,711.623,78.277Z"/><path class="cls-15" d="M718.462,87.854a3.6,3.6,0,1,1-3.63,3.539A3.561,3.561,0,0,1,718.462,87.854Z"/><path class="cls-15" d="M812.2,124.089a3.627,3.627,0,0,0-.4,1.554,3.744,3.744,0,0,0,.4,1.793Z"/><path class="cls-15" d="M682.36,24.684a3.612,3.612,0,1,1-3.47-3.678A3.562,3.562,0,0,1,682.36,24.684Z"/><path class="cls-15" d="M760.838,115.594a3.612,3.612,0,1,1-3.571-3.578A3.558,3.558,0,0,1,760.838,115.594Z"/><path class="cls-15" d="M684.069,38.917a3.6,3.6,0,1,1-3.552,3.616A3.56,3.56,0,0,1,684.069,38.917Z"/><path class="cls-15" d="M737.265,102.763a3.612,3.612,0,1,1-3.571-3.578A3.559,3.559,0,0,1,737.265,102.763Z"/><path class="cls-15" d="M768.925,117.243a3.643,3.643,0,1,1-3.555-3.766A3.576,3.576,0,0,1,768.925,117.243Z"/><path class="cls-15" d="M669.8,6.433a3.579,3.579,0,0,0,7.157.009V6.433Z"/><path class="cls-15" d="M752.46,114.1a3.589,3.589,0,1,1-3.622-3.554A3.574,3.574,0,0,1,752.46,114.1Z"/><path class="cls-15" d="M675.735,14.768a3.551,3.551,0,1,1-3.479-3.55A3.612,3.612,0,0,1,675.735,14.768Z"/><path class="cls-15" d="M693.051,60.841a3.562,3.562,0,1,1-3.367-3.674A3.617,3.617,0,0,1,693.051,60.841Z"/><path class="cls-15" d="M728.866,101.38a3.569,3.569,0,1,1-3.529-3.643A3.613,3.613,0,0,1,728.866,101.38Z"/><path class="cls-15" d="M696.3,74.137a3.569,3.569,0,1,1,3.624-3.548A3.61,3.61,0,0,1,696.3,74.137Z"/><path class="cls-15" d="M780.547,131.711a3.551,3.551,0,1,1,3.5-3.522A3.612,3.612,0,0,1,780.547,131.711Z"/><path class="cls-15" d="M706.777,80.489a3.561,3.561,0,1,1-3.413-3.631A3.616,3.616,0,0,1,706.777,80.489Z"/><path class="cls-15" d="M792.407,129.656a3.551,3.551,0,1,1-3.472-3.555A3.612,3.612,0,0,1,792.407,129.656Z"/><path class="cls-15" d="M673.987,32.9a3.569,3.569,0,1,1,3.529,3.644A3.612,3.612,0,0,1,673.987,32.9Z"/><path class="cls-15" d="M744.067,112.616a3.551,3.551,0,1,1-3.5-3.524A3.612,3.612,0,0,1,744.067,112.616Z"/><path class="cls-15" d="M686.467,50.89a3.542,3.542,0,1,1-3.489-3.556A3.61,3.61,0,0,1,686.467,50.89Z"/><path class="cls-15" d="M800.753,131.153a3.542,3.542,0,1,1-3.5-3.55A3.611,3.611,0,0,1,800.753,131.153Z"/><path class="cls-15" d="M772.126,123.127a3.541,3.541,0,1,1-3.521,3.524A3.612,3.612,0,0,1,772.126,123.127Z"/><path class="cls-15" d="M710.1,93.506a3.541,3.541,0,1,1,3.521-3.524A3.613,3.613,0,0,1,710.1,93.506Z"/><path class="cls-15" d="M759.205,123.61a3.471,3.471,0,1,1-3.47-3.4A3.51,3.51,0,0,1,759.205,123.61Z"/><path class="cls-15" d="M767.608,125.159a3.519,3.519,0,1,1-3.535-3.5A3.587,3.587,0,0,1,767.608,125.159Z"/><path class="cls-15" d="M802.048,132.52a3.52,3.52,0,1,1,3.4,3.634A3.6,3.6,0,0,1,802.048,132.52Z"/><path class="cls-15" d="M812.2,131.136a3.417,3.417,0,0,0,0,5.982Z"/><path class="cls-15" d="M676.058,44.8a3.471,3.471,0,1,1,3.475-3.391A3.511,3.511,0,0,1,676.058,44.8Z"/><path class="cls-15" d="M674.162,23.123a3.471,3.471,0,1,1-3.4-3.469A3.509,3.509,0,0,1,674.162,23.123Z"/><path class="cls-15" d="M720.414,99.81a3.471,3.471,0,1,1-3.4-3.468A3.511,3.511,0,0,1,720.414,99.81Z"/><path class="cls-15" d="M732.092,107.681a3.471,3.471,0,1,1-3.4,3.465A3.509,3.509,0,0,1,732.092,107.681Z"/><path class="cls-15" d="M684.87,69.126a3.427,3.427,0,1,1,3.439,3.378A3.42,3.42,0,0,1,684.87,69.126Z"/><path class="cls-15" d="M747.408,125.872a3.382,3.382,0,1,1,3.354-3.41A3.328,3.328,0,0,1,747.408,125.872Z"/><path class="cls-15" d="M698.561,78.918a3.4,3.4,0,1,1-3.407-3.394A3.356,3.356,0,0,1,698.561,78.918Z"/><path class="cls-15" d="M662.291,6.433a3.386,3.386,0,0,0,6.057,0Z"/><path class="cls-15" d="M684.816,59.212a3.382,3.382,0,1,1-3.4-3.364A3.327,3.327,0,0,1,684.816,59.212Z"/><path class="cls-15" d="M705.107,88.543a3.383,3.383,0,1,1-3.313-3.452A3.33,3.33,0,0,1,705.107,88.543Z"/><path class="cls-15" d="M672.551,31.479a3.352,3.352,0,1,1-3.388-3.351A3.285,3.285,0,0,1,672.551,31.479Z"/><path class="cls-15" d="M723.849,113.011a3.352,3.352,0,1,1,3.309-3.431A3.285,3.285,0,0,1,723.849,113.011Z"/><path class="cls-15" d="M705.267,98.1a3.328,3.328,0,1,1,3.029,3.535A3.27,3.27,0,0,1,705.267,98.1Z"/><path class="cls-15" d="M773.953,135.072a3.3,3.3,0,1,1-3.249-3.347A3.271,3.271,0,0,1,773.953,135.072Z"/><path class="cls-15" d="M779,139.822a3.307,3.307,0,1,1,3.313-3.265A3.264,3.264,0,0,1,779,139.822Z"/><path class="cls-15" d="M790.672,137.985a3.308,3.308,0,1,1-3.292-3.285A3.266,3.266,0,0,1,790.672,137.985Z"/><path class="cls-15" d="M799.018,139.434a3.3,3.3,0,1,1-3.363-3.233A3.272,3.272,0,0,1,799.018,139.434Z"/><path class="cls-15" d="M677.9,49.365a3.327,3.327,0,1,1-3.27-3.308A3.264,3.264,0,0,1,677.9,49.365Z"/><path class="cls-15" d="M663.9,9.961a3.318,3.318,0,1,1-3.387,3.209A3.264,3.264,0,0,1,663.9,9.961Z"/><path class="cls-15" d="M739.01,117.682a3.317,3.317,0,1,1-3.3,3.294A3.265,3.265,0,0,1,739.01,117.682Z"/><path class="cls-15" d="M690.082,77.462a3.278,3.278,0,1,1-3.285-3.307A3.293,3.293,0,0,1,690.082,77.462Z"/><path class="cls-15" d="M662.382,18.355a3.279,3.279,0,1,1-3.323,3.269A3.3,3.3,0,0,1,662.382,18.355Z"/><path class="cls-15" d="M670.985,39.88a3.278,3.278,0,1,1-3.268-3.323A3.3,3.3,0,0,1,670.985,39.88Z"/><path class="cls-15" d="M715.434,104.89a3.278,3.278,0,1,1-3.26,3.331A3.292,3.292,0,0,1,715.434,104.89Z"/><path class="cls-15" d="M759.315,133.411a3.285,3.285,0,1,1,3.2,3.4A3.287,3.287,0,0,1,759.315,133.411Z"/><path class="cls-15" d="M807.357,141a3.283,3.283,0,1,1-3.311-3.291A3.278,3.278,0,0,1,807.357,141Z"/><path class="cls-15" d="M700.511,93.579a3.249,3.249,0,1,1-3.228,3.233A3.311,3.311,0,0,1,700.511,93.579Z"/><path class="cls-15" d="M754.311,128.779a3.261,3.261,0,1,1-3.328,3.155A3.31,3.31,0,0,1,754.311,128.779Z"/><path class="cls-15" d="M676.674,67.467a3.27,3.27,0,1,1,3.076,3.382A3.3,3.3,0,0,1,676.674,67.467Z"/><path class="cls-15" d="M730.636,122.774a3.268,3.268,0,1,1,3.3-3.16A3.3,3.3,0,0,1,730.636,122.774Z"/><path class="cls-15" d="M669.83,57.744a3.249,3.249,0,1,1,3.218,3.243A3.3,3.3,0,0,1,669.83,57.744Z"/><path class="cls-15" d="M812.2,139.239a3.251,3.251,0,0,0,0,6.488Z"/><path class="cls-15" d="M696.936,87.33a3.268,3.268,0,1,1-3.143-3.318A3.3,3.3,0,0,1,696.936,87.33Z"/><path class="cls-15" d="M745.887,127.335a3.212,3.212,0,1,1-3.211,3.249A3.293,3.293,0,0,1,745.887,127.335Z"/><path class="cls-15" d="M722.319,121.209a3.195,3.195,0,1,1,3.19-3.125A3.26,3.26,0,0,1,722.319,121.209Z"/><path class="cls-15" d="M660.856,33.182a3.195,3.195,0,1,1,3.183-3.132A3.258,3.258,0,0,1,660.856,33.182Z"/><path class="cls-15" d="M669.391,47.953a3.176,3.176,0,1,1-3.039-3.234A3.228,3.228,0,0,1,669.391,47.953Z"/><path class="cls-15" d="M710.271,106.677a3.175,3.175,0,1,1-3.1-3.177A3.23,3.23,0,0,1,710.271,106.677Z"/><path class="cls-15" d="M740.661,129.018a3.129,3.129,0,1,1-3.166-3.091A3.132,3.132,0,0,1,740.661,129.018Z"/><path class="cls-15" d="M695.24,95.3a3.064,3.064,0,1,1-3.027-3.026A3,3,0,0,1,695.24,95.3Z"/><path class="cls-15" d="M674.636,66.132a3.049,3.049,0,1,1-2.936-3.087A2.99,2.99,0,0,1,674.636,66.132Z"/><path class="cls-15" d="M657,20.173a3.024,3.024,0,1,1-2.953-3.055A2.956,2.956,0,0,1,657,20.173Z"/><path class="cls-15" d="M685.324,82.706a3.082,3.082,0,1,1-3.092,3.108A3.032,3.032,0,0,1,685.324,82.706Z"/><path class="cls-15" d="M713.947,119.557a3.035,3.035,0,1,1,3.047-2.985A2.966,2.966,0,0,1,713.947,119.557Z"/><path class="cls-15" d="M655.54,14.888a3.1,3.1,0,1,1,3.037-3.169A3.077,3.077,0,0,1,655.54,14.888Z"/><path class="cls-15" d="M812.2,148.1a3.046,3.046,0,0,0-1.215-.267,3,3,0,1,0-.089,6,3.075,3.075,0,0,0,1.3-.275Z"/><path class="cls-15" d="M802.532,146.311a3.035,3.035,0,1,1-2.984,3.048A2.966,2.966,0,0,1,802.532,146.311Z"/><path class="cls-15" d="M794.3,150.9a3.05,3.05,0,1,1,2.982-3.042A2.982,2.982,0,0,1,794.3,150.9Z"/><path class="cls-15" d="M664.768,59.258a3.012,3.012,0,1,1,2.968-3.056A2.958,2.958,0,0,1,664.768,59.258Z"/><path class="cls-15" d="M785.891,149.426a3.064,3.064,0,1,1,3.046-3.008A3,3,0,0,1,785.891,149.426Z"/><path class="cls-15" d="M780.582,144.8a3.065,3.065,0,1,1-3.058-3A3,3,0,0,1,780.582,144.8Z"/><path class="cls-15" d="M769.435,146.427a3.049,3.049,0,1,1,3.075-2.949A2.985,2.985,0,0,1,769.435,146.427Z"/><path class="cls-15" d="M729.188,130.873a3.012,3.012,0,1,1,3-3.022A2.956,2.956,0,0,1,729.188,130.873Z"/><path class="cls-15" d="M764.128,141.836a3.022,3.022,0,1,1-3.035-2.972A2.959,2.959,0,0,1,764.128,141.836Z"/><path class="cls-15" d="M681.531,76.01a3.083,3.083,0,1,1-3.048-3.151A3.038,3.038,0,0,1,681.531,76.01Z"/><path class="cls-15" d="M698.987,102.172a3.012,3.012,0,1,1-2.959,3.063A2.958,2.958,0,0,1,698.987,102.172Z"/><path class="cls-15" d="M659.4,41.377a3.035,3.035,0,1,1,2.984-3.047A2.965,2.965,0,0,1,659.4,41.377Z"/><path class="cls-15" d="M747.364,138.973a2.97,2.97,0,1,1-2.86-3.039A3.013,3.013,0,0,1,747.364,138.973Z"/><path class="cls-15" d="M752.8,137.4a2.994,2.994,0,1,1-3.038,2.986A2.971,2.971,0,0,1,752.8,137.4Z"/><path class="cls-15" d="M660.82,46.719a2.96,2.96,0,1,1-2.9-2.981A3.022,3.022,0,0,1,660.82,46.719Z"/><path class="cls-15" d="M676.939,87.243a2.948,2.948,0,1,1,2.966-2.929A3.017,3.017,0,0,1,676.939,87.243Z"/><path class="cls-15" d="M655.449,28.475a2.96,2.96,0,1,1-2.943-2.939A3.02,3.02,0,0,1,655.449,28.475Z"/><path class="cls-15" d="M720.754,123.41a2.96,2.96,0,1,1-2.891,2.99A3.025,3.025,0,0,1,720.754,123.41Z"/><path class="cls-15" d="M705.9,112.071A2.96,2.96,0,1,1,702.943,115,3.022,3.022,0,0,1,705.9,112.071Z"/><path class="cls-15" d="M650,10.349a2.882,2.882,0,1,1-5.76-.186,2.882,2.882,0,0,1,5.76.186Z"/><path class="cls-15" d="M683.936,90.91a2.935,2.935,0,1,1-3.049,2.857A3.017,3.017,0,0,1,683.936,90.91Z"/><path class="cls-15" d="M690.667,100.81a2.881,2.881,0,1,1-2.864,2.862A2.933,2.933,0,0,1,690.667,100.81Z"/><path class="cls-15" d="M663.294,61.72a2.881,2.881,0,1,1-2.943,2.782A2.937,2.937,0,0,1,663.294,61.72Z"/><path class="cls-15" d="M670.086,71.514a2.935,2.935,0,1,1-2.925,2.98A3.013,3.013,0,0,1,670.086,71.514Z"/><path class="cls-15" d="M738.943,137.367a2.9,2.9,0,1,1-2.871-2.859A2.977,2.977,0,0,1,738.943,137.367Z"/><path class="cls-15" d="M715.268,124.825a2.8,2.8,0,1,1-2.89-2.748A2.755,2.755,0,0,1,715.268,124.825Z"/><path class="cls-15" d="M803.853,157.712a2.762,2.762,0,1,1-2.677-2.773A2.7,2.7,0,0,1,803.853,157.712Z"/><path class="cls-15" d="M697.513,110.758a2.781,2.781,0,1,1-2.746,2.74A2.724,2.724,0,0,1,697.513,110.758Z"/><path class="cls-15" d="M759.619,152.985a2.744,2.744,0,1,1,2.739-2.712A2.678,2.678,0,0,1,759.619,152.985Z"/><path class="cls-15" d="M770.749,151.723a2.781,2.781,0,1,1-2.716-2.77A2.725,2.725,0,0,1,770.749,151.723Z"/><path class="cls-15" d="M656.432,57.517a2.763,2.763,0,1,1,2.7-2.752A2.7,2.7,0,0,1,656.432,57.517Z"/><path class="cls-15" d="M648.389,18.714a2.763,2.763,0,1,1-2.623-2.826A2.708,2.708,0,0,1,648.389,18.714Z"/><path class="cls-15" d="M776.02,156.026a2.8,2.8,0,1,1,2.806-2.833A2.753,2.753,0,0,1,776.02,156.026Z"/><path class="cls-15" d="M730.448,135.943a2.763,2.763,0,1,1-2.663-2.787A2.706,2.706,0,0,1,730.448,135.943Z"/><path class="cls-15" d="M784.37,157.517a2.8,2.8,0,1,1,2.811-2.827A2.753,2.753,0,0,1,784.37,157.517Z"/><path class="cls-15" d="M650.945,34.05a2.8,2.8,0,1,1-2.748,2.89A2.754,2.754,0,0,1,650.945,34.05Z"/><path class="cls-15" d="M792.747,158.989a2.78,2.78,0,1,1,2.769-2.716A2.726,2.726,0,0,1,792.747,158.989Z"/><path class="cls-15" d="M812.176,158.85a2.73,2.73,0,1,1-2.774-2.685A2.675,2.675,0,0,1,812.176,158.85Z"/><path class="cls-15" d="M664.427,72.914a2.688,2.688,0,1,1-2.656-2.645A2.7,2.7,0,0,1,664.427,72.914Z"/><path class="cls-15" d="M678.162,92.652a2.7,2.7,0,1,1-2.732-2.7A2.68,2.68,0,0,1,678.162,92.652Z"/><path class="cls-15" d="M707.1,123.362a2.688,2.688,0,1,1-2.637-2.664A2.7,2.7,0,0,1,707.1,123.362Z"/><path class="cls-15" d="M742.917,144.579a2.679,2.679,0,1,1-2.692,2.627A2.7,2.7,0,0,1,742.917,144.579Z"/><path class="cls-15" d="M751.326,146.043a2.708,2.708,0,1,1-2.773,2.676A2.681,2.681,0,0,1,751.326,146.043Z"/><path class="cls-15" d="M671.3,82.771a2.7,2.7,0,1,1-2.766-2.663A2.678,2.678,0,0,1,671.3,82.771Z"/><path class="cls-15" d="M652.193,45.264a2.688,2.688,0,1,1-2.555-2.745A2.7,2.7,0,0,1,652.193,45.264Z"/><path class="cls-15" d="M644.251,24.325a2.681,2.681,0,1,1-2.793,2.525A2.711,2.711,0,0,1,644.251,24.325Z"/><path class="cls-15" d="M682.314,104.887a2.688,2.688,0,1,1,2.7-2.6A2.694,2.694,0,0,1,682.314,104.887Z"/><path class="cls-15" d="M722.009,134.543a2.681,2.681,0,1,1-2.525-2.793A2.712,2.712,0,0,1,722.009,134.543Z"/><path class="cls-15" d="M657.52,63.14a2.645,2.645,0,1,1-2.65-2.674A2.708,2.708,0,0,1,657.52,63.14Z"/><path class="cls-15" d="M689.238,114.69a2.644,2.644,0,1,1,2.6-2.727A2.706,2.706,0,0,1,689.238,114.69Z"/><path class="cls-15" d="M737.159,145.791a2.611,2.611,0,1,1-2.51-2.637A2.69,2.69,0,0,1,737.159,145.791Z"/><path class="cls-15" d="M639.768,6.433h-2a2.669,2.669,0,0,0-1.592,2.279,2.589,2.589,0,1,0,5.177.105A2.657,2.657,0,0,0,639.768,6.433Z"/><path class="cls-15" d="M642.572,32.825a2.534,2.534,0,1,1-2.463,2.641A2.539,2.539,0,0,1,642.572,32.825Z"/><path class="cls-15" d="M713.807,133.259a2.535,2.535,0,1,1-2.545-2.56A2.538,2.538,0,0,1,713.807,133.259Z"/><path class="cls-15" d="M693.554,121.942a2.5,2.5,0,1,1,2.476,2.452A2.48,2.48,0,0,1,693.554,121.942Z"/><path class="cls-15" d="M726.2,141.815a2.459,2.459,0,1,1-2.46,2.419A2.4,2.4,0,0,1,726.2,141.815Z"/><path class="cls-15" d="M676.414,100.755a2.44,2.44,0,1,1-2.392-2.487A2.381,2.381,0,0,1,676.414,100.755Z"/><path class="cls-15" d="M660.184,78.872a2.44,2.44,0,1,1-2.376,2.5A2.385,2.385,0,0,1,660.184,78.872Z"/><path class="cls-15" d="M650.515,53.256a2.5,2.5,0,1,1-2.433-2.495A2.477,2.477,0,0,1,650.515,53.256Z"/><path class="cls-15" d="M637.264,19.6a2.44,2.44,0,1,1,2.447-2.432A2.38,2.38,0,0,1,637.264,19.6Z"/><path class="cls-15" d="M768.935,160.12a2.459,2.459,0,1,1-2.39-2.49A2.4,2.4,0,0,1,768.935,160.12Z"/><path class="cls-15" d="M777.308,161.648a2.477,2.477,0,1,1-2.334-2.542A2.435,2.435,0,0,1,777.308,161.648Z"/><path class="cls-15" d="M667.1,93.617a2.459,2.459,0,1,1,2.467-2.412A2.4,2.4,0,0,1,667.1,93.617Z"/><path class="cls-15" d="M782.957,165.548a2.477,2.477,0,1,1,2.407-2.47A2.432,2.432,0,0,1,782.957,165.548Z"/><path class="cls-15" d="M793.72,164.3a2.476,2.476,0,1,1-2.371-2.507A2.434,2.434,0,0,1,793.72,164.3Z"/><path class="cls-15" d="M802.039,165.694a2.441,2.441,0,1,1-2.5-2.376A2.386,2.386,0,0,1,802.039,165.694Z"/><path class="cls-15" d="M643.53,43.668a2.38,2.38,0,1,1-2.388-2.334A2.4,2.4,0,0,1,643.53,43.668Z"/><path class="cls-15" d="M715.471,142.666a2.37,2.37,0,1,1,2.252,2.483A2.419,2.419,0,0,1,715.471,142.666Z"/><path class="cls-15" d="M752.156,157.047a2.39,2.39,0,1,1-2.409-2.332A2.382,2.382,0,0,1,752.156,157.047Z"/><path class="cls-15" d="M635.85,23.144a2.369,2.369,0,1,1-2.438,2.3A2.412,2.412,0,0,1,635.85,23.144Z"/><path class="cls-15" d="M680.765,108.143a2.412,2.412,0,1,1-2.339,2.521A2.372,2.372,0,0,1,680.765,108.143Z"/><path class="cls-15" d="M758.183,161.02a2.424,2.424,0,1,1,2.363-2.523A2.371,2.371,0,0,1,758.183,161.02Z"/><path class="cls-15" d="M653.372,69.065a2.4,2.4,0,1,1-2.387,2.338A2.37,2.37,0,0,1,653.372,69.065Z"/><path class="cls-15" d="M702.976,129.351a2.391,2.391,0,1,1-2.447,2.295A2.381,2.381,0,0,1,702.976,129.351Z"/><path class="cls-15" d="M808.012,169.649a2.4,2.4,0,1,1,2.342-2.383A2.371,2.371,0,0,1,808.012,169.649Z"/><path class="cls-15" d="M685.345,120.33a2.356,2.356,0,1,1,2.321,2.427A2.427,2.427,0,0,1,685.345,120.33Z"/><path class="cls-15" d="M741.4,157.95a2.338,2.338,0,1,1,2.355-2.246A2.414,2.414,0,0,1,741.4,157.95Z"/><path class="cls-15" d="M646.576,59.262a2.357,2.357,0,1,1-2.409,2.339A2.425,2.425,0,0,1,646.576,59.262Z"/><path class="cls-15" d="M733.072,156.356a2.236,2.236,0,1,1,2.22-2.288A2.236,2.236,0,0,1,733.072,156.356Z"/><path class="cls-15" d="M711.981,141.329a2.2,2.2,0,1,1-2.085-2.239A2.164,2.164,0,0,1,711.981,141.329Z"/><path class="cls-15" d="M628.38,6.433a2.283,2.283,0,0,0-.171.9,2.2,2.2,0,1,0,4.4-.051,2.3,2.3,0,0,0-.171-.851Z"/><path class="cls-15" d="M665.659,97.016A2.2,2.2,0,1,1,663.42,99.1,2.163,2.163,0,0,1,665.659,97.016Z"/><path class="cls-15" d="M660.955,89.594a2.2,2.2,0,1,1-2.2-2.127A2.16,2.16,0,0,1,660.955,89.594Z"/><path class="cls-15" d="M694.529,132.422a2.175,2.175,0,1,1,2.208-2.1A2.112,2.112,0,0,1,694.529,132.422Z"/><path class="cls-15" d="M639.627,54.242a2.174,2.174,0,1,1,2.205-2.1A2.111,2.111,0,0,1,639.627,54.242Z"/><path class="cls-15" d="M634.307,36.04a2.175,2.175,0,1,1,2.154-2.155A2.112,2.112,0,0,1,634.307,36.04Z"/><path class="cls-15" d="M651.825,77.669a2.152,2.152,0,1,1-2.083,2.218A2.087,2.087,0,0,1,651.825,77.669Z"/><path class="cls-15" d="M674.633,109.121a2.151,2.151,0,1,1-2.093-2.209A2.086,2.086,0,0,1,674.633,109.121Z"/><path class="cls-15" d="M791.855,172.694a2.1,2.1,0,1,1-1.956-2.173A2.087,2.087,0,0,1,791.855,172.694Z"/><path class="cls-15" d="M775.458,169.654a2.118,2.118,0,1,1-2.026-2.135A2.082,2.082,0,0,1,775.458,169.654Z"/><path class="cls-15" d="M781.372,169.011a2.118,2.118,0,1,1-2.094,2.068A2.081,2.081,0,0,1,781.372,169.011Z"/><path class="cls-15" d="M726.8,152.643a2.1,2.1,0,1,1-2.014-2.117A2.082,2.082,0,0,1,726.8,152.643Z"/><path class="cls-15" d="M800.186,174.063a2.08,2.08,0,1,1-2.129-2.03A2.115,2.115,0,0,1,800.186,174.063Z"/><path class="cls-15" d="M767.076,168.451a2.092,2.092,0,1,1-2.047-2.1A2.094,2.094,0,0,1,767.076,168.451Z"/><path class="cls-15" d="M631.007,15.621a2.091,2.091,0,1,1-2.1-2.048A2.1,2.1,0,0,1,631.007,15.621Z"/><path class="cls-15" d="M679.32,116.818a2.092,2.092,0,1,1-2.066,2.079A2.1,2.1,0,0,1,679.32,116.818Z"/><path class="cls-15" d="M647.121,69.951a2.091,2.091,0,1,1-2.076-2.069A2.1,2.1,0,0,1,647.121,69.951Z"/><path class="cls-15" d="M756.6,164.886a2.113,2.113,0,0,1,2.093,2.075,2.072,2.072,0,0,1-2.111,2.045,2,2,0,0,1-2.008-1.991A2.071,2.071,0,0,1,756.6,164.886Z"/><path class="cls-15" d="M686.245,126.751a2.006,2.006,0,1,1-2.042,1.969A2.06,2.06,0,0,1,686.245,126.751Z"/><path class="cls-15" d="M632.768,40.193a2.029,2.029,0,1,1-2,2.019A2.1,2.1,0,0,1,632.768,40.193Z"/><path class="cls-15" d="M808.491,175.6a2.03,2.03,0,1,1-1.993-2.028A2.1,2.1,0,0,1,808.491,175.6Z"/><path class="cls-15" d="M748.311,167.465a2.006,2.006,0,1,1,1.969-2.042A2.061,2.061,0,0,1,748.311,167.465Z"/><path class="cls-15" d="M703.477,139.869a2.052,2.052,0,1,1-1.9-2.119A2.121,2.121,0,0,1,703.477,139.869Z"/><path class="cls-15" d="M627.5,25.957a1.917,1.917,0,0,1-2-1.993,1.839,1.839,0,0,1,1.911-1.873,1.934,1.934,0,0,1,.09,3.866Z"/><path class="cls-15" d="M638.094,58.148a2.019,2.019,0,0,1,2.05,1.943,1.975,1.975,0,0,1-1.979,2,1.917,1.917,0,0,1-1.965-1.858A1.982,1.982,0,0,1,638.094,58.148Z"/><path class="cls-15" d="M716.6,153.114a2.018,2.018,0,0,1-1.934-2.057,1.98,1.98,0,0,1,2.092-1.886,1.916,1.916,0,0,1,1.851,1.971A1.976,1.976,0,0,1,716.6,153.114Z"/><path class="cls-15" d="M657.238,96.14A1.765,1.765,0,0,1,659.117,98a1.853,1.853,0,0,1-3.706.053A1.765,1.765,0,0,1,657.238,96.14Z"/><path class="cls-15" d="M666.009,107.6a1.766,1.766,0,0,1-1.908,1.827,1.853,1.853,0,0,1,.053-3.706A1.765,1.765,0,0,1,666.009,107.6Z"/><path class="cls-15" d="M741.809,163.915c-.125,1.233-.733,1.924-1.914,1.905a1.854,1.854,0,0,1,.049-3.707A1.768,1.768,0,0,1,741.809,163.915Z"/><path class="cls-15" d="M694.894,138.514c-.134,1.168-.689,1.866-1.814,1.865a1.777,1.777,0,0,1-.017-3.553A1.75,1.75,0,0,1,694.894,138.514Z"/><path class="cls-15" d="M652.271,88.074c-.113,1.246-.7,1.949-1.894,1.93a1.831,1.831,0,0,1-.026-3.661A1.769,1.769,0,0,1,652.271,88.074Z"/><path class="cls-15" d="M633.421,50.4c-.091,1.2-.629,1.918-1.749,1.957a1.777,1.777,0,0,1-.14-3.551A1.755,1.755,0,0,1,633.421,50.4Z"/><path class="cls-15" d="M672.8,117.555a1.693,1.693,0,0,1-1.732,1.662,1.737,1.737,0,0,1-1.878-1.831,1.687,1.687,0,0,1,1.794-1.768A1.8,1.8,0,0,1,672.8,117.555Z"/><path class="cls-15" d="M710.1,149.624c-.119,1.09-.671,1.791-1.8,1.8a1.776,1.776,0,0,1-.035-3.551C709.4,147.851,709.962,148.542,710.1,149.624Z"/><path class="cls-15" d="M643.39,80.149a1.814,1.814,0,1,1,.339-3.613,1.671,1.671,0,0,1,1.6,1.946A1.738,1.738,0,0,1,643.39,80.149Z"/><path class="cls-15" d="M636.587,70.433c-.444-.663-1.168-1.289-1.262-2a1.649,1.649,0,1,1,3.3.07c-.126.707-.875,1.3-1.347,1.946Z"/><path class="cls-15" d="M628.039,32.247c-.128,1.173-.682,1.889-1.8,1.886a1.761,1.761,0,0,1-.084-3.52A1.766,1.766,0,0,1,628.039,32.247Z"/><path class="cls-15" d="M679.806,127.652c-.664.443-1.29,1.168-2,1.261a1.649,1.649,0,1,1,.072-3.3c.7.126,1.3.875,1.943,1.346Z"/><path class="cls-15" d="M733.374,162.394c-.152,1.163-.722,1.867-1.843,1.84a1.76,1.76,0,0,1-.006-3.52A1.765,1.765,0,0,1,733.374,162.394Z"/><path class="cls-15" d="M620.312,6.433A1.6,1.6,0,0,0,622,7.874a1.657,1.657,0,0,0,1.79-1.441Z"/><path class="cls-15" d="M773.72,178.418c-.665.4-1.368,1.17-1.986,1.107a2.278,2.278,0,0,1-1.453-1.6,1.337,1.337,0,0,1,1.679-1.516c.656.14,1.188.863,1.776,1.324Q773.728,178.078,773.72,178.418Z"/><path class="cls-15" d="M723.413,158.674c.8,1,1.525,1.53,1.671,2.185a1.584,1.584,0,1,1-3.159.124C722.017,160.319,722.7,159.737,723.413,158.674Z"/><path class="cls-15" d="M782.1,179.817c-.645.437-1.309,1.236-1.929,1.2a2.277,2.277,0,0,1-1.532-1.521,1.337,1.337,0,0,1,1.6-1.6c.662.105,1.23.8,1.84,1.228Z"/><path class="cls-15" d="M625.008,38.962c.414.555,1.066,1.062,1.189,1.675a1.217,1.217,0,0,1-1.451,1.536,2.171,2.171,0,0,1-1.426-1.427c-.077-.524.631-1.165.994-1.754Z"/><path class="cls-15" d="M700.3,149.93c-1.347-.311-2.063-.868-1.829-1.824a2.307,2.307,0,0,1,1.47-1.42,1.224,1.224,0,0,1,1.478,1.52C701.305,148.827,700.688,149.358,700.3,149.93Z"/><path class="cls-15" d="M631.87,58.951c-.565.4-1.089,1.032-1.705,1.141a1.216,1.216,0,0,1-1.5-1.489,2.168,2.168,0,0,1,1.463-1.388c.53-.062,1.152.661,1.733,1.039C631.866,58.486,631.868,58.719,631.87,58.951Z"/><path class="cls-15" d="M755.651,173.266c.337.645,1.006,1.344.914,1.921a2.149,2.149,0,0,1-1.557,1.286,1.23,1.23,0,0,1-1.343-1.646c.161-.61.832-1.085,1.275-1.62Z"/><path class="cls-15" d="M763.181,178.339c-.426-.6-1.1-1.158-1.221-1.817-.182-.954.5-1.58,1.5-1.6s1.709.569,1.566,1.535c-.1.664-.74,1.248-1.138,1.868Z"/><path class="cls-15" d="M788.6,179.142c.416.608,1.075,1.173,1.192,1.834.169.959-.524,1.571-1.523,1.577s-1.7-.595-1.544-1.558c.109-.662.76-1.236,1.168-1.849Z"/><path class="cls-15" d="M796.1,184.21c-.338-.646-1.007-1.344-.914-1.921A2.145,2.145,0,0,1,796.745,181a1.23,1.23,0,0,1,1.342,1.646c-.16.61-.832,1.084-1.274,1.62Z"/><path class="cls-15" d="M620.828,12.328c.441.592,1.126,1.131,1.266,1.787.2.946-.462,1.6-1.463,1.634s-1.725-.528-1.6-1.5c.084-.667.713-1.266,1.1-1.895Z"/><path class="cls-15" d="M685.13,135.4c.36.592,1.072,1.242.985,1.759a1.4,1.4,0,0,1-2.8-.113c-.045-.521.716-1.113,1.122-1.674Z"/><path class="cls-15" d="M655.458,107.815c-.393-.569-1.14-1.176-1.084-1.7a1.4,1.4,0,0,1,2.8-.056c.076.518-.646,1.154-1.017,1.739Z"/><path class="cls-15" d="M650.64,96.88c-.578.382-1.2,1.115-1.72,1.048-.553-.072-1.008-.9-1.5-1.4.5-.5.954-1.327,1.507-1.4.519-.067,1.141.667,1.718,1.049Z"/><path class="cls-15" d="M805.384,182.272c.355.6,1.067,1.267.966,1.774a2.1,2.1,0,0,1-1.532,1.285c-.392.039-1.233-.9-1.233-1.4,0-.565.72-1.129,1.127-1.694Z"/><path class="cls-15" d="M746.883,175.88c-.724-.912-1.531-1.5-1.461-1.946.091-.583.88-1.057,1.368-1.577.484.476,1.288.91,1.357,1.44C748.214,174.3,747.513,174.907,746.883,175.88Z"/><path class="cls-15" d="M664.7,115.826c-.911.724-1.5,1.53-1.946,1.46-.582-.091-1.056-.88-1.576-1.368.476-.483.909-1.288,1.44-1.357C663.123,114.5,663.728,115.2,664.7,115.826Z"/><path class="cls-15" d="M644.414,86.7c-.952.67-1.581,1.439-2.025,1.344-.578-.124-1.008-.935-1.5-1.45.5-.456.98-1.236,1.514-1.276C642.909,85.28,643.474,86.015,644.414,86.7Z"/><path class="cls-15" d="M619.467,24.593c-.723-.912-1.53-1.5-1.46-1.946.091-.583.88-1.056,1.368-1.577.484.476,1.29.911,1.357,1.44C620.8,23.018,620.1,23.623,619.467,24.593Z"/><path class="cls-15" d="M717.223,159.535c-.96.658-1.6,1.419-2.041,1.319-.577-.132-1-.946-1.487-1.467.508-.451,1-1.225,1.531-1.26C715.733,158.1,716.291,158.837,717.223,159.535Z"/><path class="cls-15" d="M637.374,76.936c-.893.576-1.506,1.265-1.9,1.158-.529-.142-.89-.907-1.323-1.4.481-.4.955-1.1,1.447-1.112C636.062,75.566,636.55,76.269,637.374,76.936Z"/><path class="cls-15" d="M740.348,172.317c-.946.625-1.5,1.273-1.941,1.2a1.844,1.844,0,0,1-1.176-1.284c-.054-.33.729-1.1,1.159-1.12C738.882,171.1,739.4,171.7,740.348,172.317Z"/><path class="cls-15" d="M671.418,125.727c-.932.644-1.47,1.3-1.914,1.245a1.839,1.839,0,0,1-1.2-1.258c-.061-.329.7-1.121,1.133-1.146C669.927,124.54,670.456,125.127,671.418,125.727Z"/><path class="cls-15" d="M693.353,146.728c-.847.547-1.4,1.17-1.762,1.074-.488-.131-.828-.815-1.231-1.261.434-.367.854-1,1.306-1.023C692.092,145.5,692.55,146.117,693.353,146.728Z"/><path class="cls-15" d="M706.742,159.706c-.524-.84-1.072-1.333-1.044-1.791.024-.385.82-1.089,1.093-1.012a1.813,1.813,0,0,1,1.107,1.2C707.958,158.461,707.33,158.934,706.742,159.706Z"/><path class="cls-15" d="M628.565,65.327c.567.766,1.158,1.217,1.125,1.617a1.073,1.073,0,0,1-2.145.072C627.486,66.62,628.048,66.131,628.565,65.327Z"/><path class="cls-15" d="M617.978,29.178c.5.855,1.035,1.363,1,1.821-.034.384-.851,1.065-1.122.98a1.811,1.811,0,0,1-1.073-1.23C616.727,30.391,617.367,29.935,617.978,29.178Z"/><path class="cls-15" d="M731.734,170.884c-.8.517-1.293,1.079-1.689,1.019-.42-.062-.751-.716-1.12-1.112.4-.369.77-1,1.193-1.033C730.518,169.725,730.969,170.317,731.734,170.884Z"/><path class="cls-15" d="M625.02,49c-.8.618-1.3,1.287-1.667,1.22-.5-.088-.889-.745-1.326-1.157.4-.4.765-1.066,1.211-1.125C623.661,47.885,624.169,48.463,625.02,49Z"/><path class="cls-15" d="M676.389,137.244c-.541-.781-1.113-1.248-1.061-1.631a1.605,1.605,0,0,1,1.1-1.027c.274-.052.959.618.971.979C677.413,136,676.9,136.443,676.389,137.244Z"/><path class="cls-15" d="M654.471,113.094c.489.595.989.939.978,1.264-.012.345-.512.673-.8,1.008-.335-.287-.878-.533-.944-.871C653.645,114.175,654.084,113.757,654.471,113.094Z"/><path class="cls-15" d="M640.838,93.722c.434.638.9,1.024.853,1.334a1.336,1.336,0,0,1-.915.822c-.209.044-.767-.509-.767-.793C640.008,94.727,640.417,94.369,640.838,93.722Z"/><path class="cls-15" d="M723.327,169.243c-.608.471-.964.959-1.277.933a1.323,1.323,0,0,1-.875-.861c-.056-.211.46-.8.742-.819C722.275,168.474,722.658,168.862,723.327,169.243Z"/><path class="cls-15" d="M612.44,14c-.4-.662-.84-1.077-.774-1.382a1.346,1.346,0,0,1,.966-.771c.207-.033.732.557.716.844C613.329,13.042,612.9,13.375,612.44,14Z"/><path class="cls-15" d="M647.634,105.917c-.4-.592-.9-1.018-.832-1.3.1-.393.626-.677.97-1.008.3.369.8.711.853,1.114C648.664,105.01,648.11,105.375,647.634,105.917Z"/><path class="cls-15" d="M787.973,189.428c-.562.352-.982.8-1.216.718-.352-.124-.574-.618-.852-.955.322-.243.648-.68.966-.674S787.47,188.987,787.973,189.428Z"/><path class="cls-15" d="M770.313,185.136c.418.525.912.894.856,1.133-.086.363-.553.637-.859.948-.275-.293-.739-.568-.77-.884S769.935,185.685,770.313,185.136Z"/><path class="cls-15" d="M779.924,187.772c-.52.43-.88.932-1.119.88-.366-.08-.647-.543-.964-.843.288-.28.554-.749.87-.786C779.012,186.988,779.366,187.4,779.924,187.772Z"/><path class="cls-15" d="M0,553.3v19.933H57.706l-1.169-1.586c.645-.476,1.193-.881,1.776-1.31l1.3,1.853-1.593,1.043h6.767l-.1-.127,1.783-1.232,1.027,1.359h6.955l.322-.235.174.235h25.324l-1.88-2.673,3.087-2.28,2.349,3.312-2.722,1.641h6.227c-.306-.419-.606-.83-.873-1.194,1.049-.766,2.368-1.729,3.48-2.539.56.939,1.314,2.206,2,3.36l-.5.373h3.826l3.042-2.421a5.016,5.016,0,0,0,1.012,2.421h5.916a3.86,3.86,0,0,0-.992-6,5.279,5.279,0,0,0-3.268-.287c-.969.27-1.742,1.24-2.636,1.93a4.043,4.043,0,0,0-3.685-3.8c-2.214-.26-3.62,1-4.545,3.1-.221-2.473-.609-3.091-2.788-4.633,2.745-.732,4-1.931,4.157-3.987a3.915,3.915,0,0,0-2.643-4.065,5.544,5.544,0,0,0-3.272.173c-.928.381-1.6,1.395-2.338,2.092-.23-1.986-.671-2.658-2.753-4.072.322-.075.6-.128.877-.2a4.132,4.132,0,0,0,.663-7.9c-.22-.1-.43-.228-.645-.343l.046.034a4.618,4.618,0,0,0-5.015,3.109,4.774,4.774,0,0,0-3.056-4.555,4.829,4.829,0,0,0,4.468-3.378l-.038.059c.146-2.059-.484-3.738-2.434-4.682-2.109-1.021-4.109-.168-5.583,2.1l-2.172-3.805a4.69,4.69,0,0,0,3.238-2.945c.268-2.5-.691-4.3-2.686-5.014-2.1-.754-3.811.06-5.516,2.683a4.691,4.691,0,0,0-2.934-4.406c.464-.118.75-.187,1.034-.263a4.061,4.061,0,0,0,.006-7.97,4.055,4.055,0,0,0-4.547,2.287,5.627,5.627,0,0,1-.67.837,3.9,3.9,0,0,0-2.437-4.479c-2.105-.855-4.013,0-5.525,2.4a10.326,10.326,0,0,0-.922-2.348,12.576,12.576,0,0,0-2.013-1.89c.346-.08.681-.148,1.01-.235a4.032,4.032,0,0,0-.138-7.891,4.019,4.019,0,0,0-4.518,2.31,7.932,7.932,0,0,1-.569.879c.1-2.3-.8-4.051-2.677-4.516a6.132,6.132,0,0,0-3.279.23,9.513,9.513,0,0,0-2.335,1.5,3.946,3.946,0,0,0-2.959-3.366c-2.157-.667-3.683.354-5,2.076-.535-2.143-1.706-3.559-3.848-3.76a4.062,4.062,0,0,0-4.244,2.485l-2.31-3.849c2.33-.856,3.471-2.273,3.338-4.292a4.018,4.018,0,0,0-3.005-3.66,3.77,3.77,0,0,0-4.448,1.857,5.422,5.422,0,0,0-.341,3.269A7.411,7.411,0,0,0,30.9,498.4L27.609,501l-2.289-3.624c2.346-.779,3.521-2.228,3.386-4.292a4.021,4.021,0,0,0-7.629-1.5c-.929,1.921-.319,3.732,1.575,5.283l-3.625,2.857a4.075,4.075,0,0,0-3.671-3.645c-2.185-.284-3.648.914-4.642,3.065-.186-2.463-1.24-4.073-3.493-4.493-2.311-.43-3.82.825-4.844,3-.087-.5-.124-.8-.189-1.082A4.281,4.281,0,0,0,0,493.564V500.9a4.121,4.121,0,0,0,2.023-2.222L4.059,502.4l-3.047,2.308C.7,504.3.359,503.849,0,503.377v4.692l.658-.526L2.632,510.6,0,512.417v5.058l.963,1.462-.963.6v33.5l1.506-1.086,1.078,1.632-1.558,1.081Zm9.213,2.455-.878-1.1,1.3-.989.812,1.224Zm1.555-7.943-1.285-1.639,1.6-1.272,1.254,1.892Zm1.253-7.963-1.488-2,2.1-1.557,1.455,2.176Zm1.447-8.088-1.7-2.309,2.4-1.736,1.694,2.45ZM17.5,557.3l-.889-1.234,1.4-1.139c.33.446.618.835.992,1.342Zm1.384-8.03-1.228-1.487,1.833-1.363,1.016,1.628Zm1.513-7.926-1.452-1.985,2.041-1.55,1.431,2.152Zm-.213-10.379,2.356-1.752,1.657,2.441-2.377,1.578Q21.053,532.177,20.179,530.964Zm4.282,35.965-.961-1.243,1.284-.839c.3.433.548.791.841,1.215Zm1.394-8.149c-.377-.5-.724-.952-1.094-1.44l1.525-1.119,1.1,1.53Zm1.43-8.091-1.048-1.538,1.58-1.254,1.105,1.674Zm1.453-7.841-1.438-2,2.067-1.526c.485.721.976,1.45,1.456,2.161Zm-.177-10.408,2.311-1.728,1.7,2.442-2.383,1.573Zm4.22,36.085-.931-1.275,1.312-1.016.907,1.31Zm1.455-8.2-1.128-1.494,1.553-1.19,1.141,1.682Zm1.4-8.092-1.075-1.6,1.737-1.4,1.237,1.72Zm1.412-8L35.6,542.362l2.142-1.6,1.317,1.968Zm-.15-10.285,2.37-1.772c.581.84,1.162,1.684,1.721,2.5l-2.426,1.611Zm4.237,36.14c-.369-.509-.678-.936-1.015-1.4l1.4-1.051,1.059,1.461Zm1.44-8.145-1.192-1.61,1.669-1.272,1.191,1.764Zm1.444-8.164L42.64,551.9l1.934-1.452c.446.654.885,1.3,1.382,2.027C45.337,552.894,44.711,553.314,44.015,553.779Zm1.418-8.053L44.111,543.7l1.984-1.54,1.391,2.083Zm-.263-10.315,2.464-1.785c.616.879,1.2,1.716,1.779,2.535l-2.526,1.7C46.342,537.085,45.756,536.247,45.17,535.411ZM49.5,571.717l-1.173-1.551,1.6-1.174,1.117,1.652Zm1.415-8.161-1.284-1.74c.573-.436,1.148-.872,1.807-1.371l1.3,1.885Zm1.437-8.17-1.419-2,2.029-1.532,1.483,2.158ZM53.79,547.3l-1.4-2.108,1.973-1.5,1.611,2.073Zm1.278-8.28L53.406,536.9l2.431-1.673,1.5,2.233Zm-.513-10.573,2.711-2.079,2.014,3.057-2.662,1.6Zm4.714,36.79-1.421-1.986,1.765-1.231c.507.669.95,1.251,1.452,1.912Zm1.338-8.426-1.5-1.959,2.03-1.389,1.574,2.078Zm1.454-8.141-1.751-2.288,2.251-1.7,1.806,2.578Zm1.213-7.892-1.636-2.5,2.492-1.953L65.749,539Zm-.611-10.794,2.982-2.247c.653,1,1.383,2.114,2.077,3.173l-2.993,1.941C64.085,531.957,63.334,530.916,62.663,529.985Zm4.806,36.681-1.528-2.02,1.951-1.49L69.54,565.4Zm1.247-7.959c-.519-.759-1.046-1.531-1.619-2.368l2.316-1.751,1.742,2.488Zm1.432-8.192-1.776-2.56,2.581-1.92,1.9,2.7ZM75.6,568.578l-1.634-2.392,2.309-1.719c.555.769,1.146,1.59,1.764,2.449Zm1.43-8.234-1.756-2.532,2.562-1.871c.58.831,1.212,1.735,1.855,2.654Zm1.488-8.168L76.582,549.4l2.781-2.079,1.962,2.953Zm-.7-11.139,3.07-2.312,2.2,3.29-3.149,1.956Zm6.079,29.209-1.769-2.57,2.573-1.911,1.905,2.687Zm1.477-8.218c-.6-.865-1.264-1.827-1.906-2.757L86.22,557.2l2,2.953Zm6.846,9.894-1.927-2.794,2.812-2.137c.638.945,1.356,2.011,2.033,3.015Zm1.445-8.218c-.649-.923-1.422-2.022-2.094-2.976l3.057-2.241,2.195,3.237Zm9.526-4.085a4.221,4.221,0,0,0,2.6,3.489c-1.263.755-2.652,1.587-3.841,2.3l-2.221-3.2ZM96.1,549.966l2.467,3.445-3.475,2.1-2.215-3.16Zm-6.662-10.028a4.259,4.259,0,0,0,2.489,3.461c-1.21.739-2.539,1.549-3.671,2.239-.732-1.016-1.572-2.18-2.27-3.147Zm-1.7,8.684,2.185,3.224-3.108,1.968-2.083-2.925Zm-5.332-18.255,2.007,3.382-3.083,2.221-1.884-3.086Zm-6.9-11.027a10,10,0,0,0,.809,2.668,14.787,14.787,0,0,0,2.2,2.294,4.33,4.33,0,0,0-3.878,2.307l-2.682-3.738C73.6,522.5,75.3,521.71,75.509,519.34Zm-1.42,9.7c.509.89,1.188,2.075,1.83,3.2l-2.9,2.1-2.145-2.866Zm-1.53,8.555,1.987,2.831L71.6,542.369l-1.7-2.6Zm-5.381-18.418,2.357,3.447-3.4,2.144-2.253-3.193Zm-6.8-10.975c.405,2,.872,3.953,3.292,4.657a4.741,4.741,0,0,0-4.275,2.469L56.726,511.5A4.252,4.252,0,0,0,60.382,508.207Zm-1.571,9.515,2.2,3.433-3.178,1.956-2.206-3ZM52.17,507.5a4.232,4.232,0,0,0,2.583,3.708l-3.621,1.946c-.743-.91-1.646-2.014-2.4-2.938Zm-1.652,9.159,2.1,2.919-2.93,1.754-2.133-2.746Zm-1.552,8.586,1.959,2.68-2.571,1.81c-.658-.925-1.334-1.876-1.957-2.75Zm-5.3-18.557,2.409,3.134L42.884,512,40.5,508.689Zm-1.29,8.184,2.043,3.19-2.992,1.967c-.67-.913-1.436-1.958-2.121-2.89Zm-1.552,8.666,1.869,2.82L40,528.151l-1.9-2.634Zm-5.3-18.749,2.309,3.5L34.5,510.45c-.715-1-1.567-2.195-2.269-3.18Zm-1.512,8.634,2,3.174-2.922,1.908-2.127-2.86ZM32.453,522.1c.618.907,1.264,1.857,1.867,2.741l-2.692,1.784-1.881-2.59Zm-5.274-18.861c.643,1.025,1.492,2.382,2.24,3.576l-3.278,2.105-2.27-3.128Zm-1.506,8.717,1.964,3.116L24.736,517l-2.142-2.837Zm-1.6,8.67c.623.91,1.255,1.832,1.87,2.728l-2.677,1.779-1.858-2.6ZM18.853,501.94c.673,1,1.537,2.281,2.249,3.338-1.049.686-2.281,1.494-3.377,2.212-.549-.876-1.252-2-1.856-2.957Zm-1.568,8.507,2,3.132-2.918,1.945-2.149-2.857Zm-1.571,8.664,1.877,2.746-2.685,1.794-1.9-2.6ZM10.5,500.43l1.869,3.471L9.4,506.116c-.592-.949-1.3-2.08-1.936-3.107ZM8.94,508.921l1.993,3.18-2.954,2-2.165-2.934Zm-1.564,8.667c.6.89,1.242,1.845,1.883,2.8l-2.716,1.8L4.57,519.559ZM5.83,526.159c.542.814,1.111,1.666,1.686,2.53l-2.422,1.638-1.727-2.376Zm-1.557,8.579L5.772,537,3.856,538.23,2.3,536.277ZM2.484,546.6l-1.343-1.842,1.658-1.2,1.337,1.812Z"/><path class="cls-15" d="M97.775,540.5a13.815,13.815,0,0,1,1.661-2.525,3.845,3.845,0,0,1,4.548-.425,4.019,4.019,0,0,1,1.985,4.132,3.924,3.924,0,0,1-3.137,3.324c-.481.1-.974.152-1.462.225l.046.034a4.776,4.776,0,0,1-3.6-4.824Z"/><path class="cls-15" d="M90.822,531.208c.638-2.406,2.006-4,4.651-4.155l-.04-.03c2.759,1.065,3.871,2.407,3.711,4.481a4.032,4.032,0,0,1-7.933.711c-.1-.363-.251-.71-.381-1.057A.3.3,0,0,0,90.822,531.208Z"/><path class="cls-15" d="M113.047,551.236c-1.156,3-2.747,4.125-5.106,3.6a4.025,4.025,0,1,1,4.778-5.024c.13.479.2.973.3,1.461Z"/><path class="cls-15" d="M45.408,496.182a4,4,0,1,1-3.916-4.167A3.972,3.972,0,0,1,45.408,496.182Z"/><path class="cls-15" d="M45.476,497.342a3.988,3.988,0,1,1,4.092,4.15A3.945,3.945,0,0,1,45.476,497.342Z"/><path class="cls-15" d="M7.982,494.33a3.985,3.985,0,1,1,.083-7.969,3.985,3.985,0,0,1-.083,7.969Z"/><path class="cls-15" d="M115.725,556.783a3.985,3.985,0,1,1-4,3.929A3.937,3.937,0,0,1,115.725,556.783Z"/><path class="cls-15" d="M77.037,510.274a4,4,0,1,1-3.99-3.936A3.969,3.969,0,0,1,77.037,510.274Z"/><path class="cls-15" d="M92.256,521.71a4,4,0,1,1-3.894-4.033A3.972,3.972,0,0,1,92.256,521.71Z"/><path class="cls-15" d="M20.342,491.782a4,4,0,1,1-3.982-3.945A3.97,3.97,0,0,1,20.342,491.782Z"/><path class="cls-15" d="M61.775,499.066a3.957,3.957,0,1,1-3.89-4.023A3.9,3.9,0,0,1,61.775,499.066Z"/><path class="cls-15" d="M81.425,515.764a3.934,3.934,0,1,1,3.9-4A3.867,3.867,0,0,1,81.425,515.764Z"/><path class="cls-15" d="M0,484.945v7.82a3.864,3.864,0,0,0,3.576-3.978A3.856,3.856,0,0,0,0,484.945Z"/><path class="cls-15" d="M95.473,527.053c-1.6-.8-2.775-1.9-2.78-3.852a3.917,3.917,0,1,1,4.214,3.868,13.719,13.719,0,0,1-1.474-.046Z"/><path class="cls-15" d="M103.493,536.642a3.924,3.924,0,1,1,3.9-3.981A3.859,3.859,0,0,1,103.493,536.642Z"/><path class="cls-15" d="M113.018,551.276c.8-1.6,1.9-2.776,3.852-2.781A3.917,3.917,0,1,1,113,552.709a13.983,13.983,0,0,1,.046-1.474Z"/><path class="cls-15" d="M70.089,500.517a3.916,3.916,0,1,1-3.815-3.941A3.86,3.86,0,0,1,70.089,500.517Z"/><path class="cls-15" d="M110.4,538.641a3.925,3.925,0,1,1-3.987,3.9A3.863,3.863,0,0,1,110.4,538.641Z"/><path class="cls-15" d="M74.456,505.869a3.887,3.887,0,1,1,3.959-3.775A3.865,3.865,0,0,1,74.456,505.869Z"/><path class="cls-15" d="M26.175,488.861a3.887,3.887,0,1,1,3.9-3.835A3.866,3.866,0,0,1,26.175,488.861Z"/><path class="cls-15" d="M21.712,483.434a3.879,3.879,0,1,1-3.927-3.829A3.867,3.867,0,0,1,21.712,483.434Z"/><path class="cls-15" d="M50.97,485.576a3.875,3.875,0,1,1-3.889,3.862A3.886,3.886,0,0,1,50.97,485.576Z"/><path class="cls-15" d="M42.4,491.861a3.9,3.9,0,1,1,4.084-3.971A3.9,3.9,0,0,1,42.4,491.861Z"/><path class="cls-15" d="M123.837,566.145a3.886,3.886,0,1,1,3.813-3.924A3.867,3.867,0,0,1,123.837,566.145Z"/><path class="cls-15" d="M34.524,490.353a3.887,3.887,0,1,1,3.906-3.829A3.866,3.866,0,0,1,34.524,490.353Z"/><path class="cls-15" d="M89.762,517.208a3.886,3.886,0,1,1,3.871-3.864A3.866,3.866,0,0,1,89.762,517.208Z"/><path class="cls-15" d="M122.253,544.086a3.861,3.861,0,1,1-3.868-3.889A3.9,3.9,0,0,1,122.253,544.086Z"/><path class="cls-15" d="M108.522,524.872a3.862,3.862,0,1,1-3.682-4.068A3.91,3.91,0,0,1,108.522,524.872Z"/><path class="cls-15" d="M9.6,478.124a3.868,3.868,0,1,1-3.986,3.784A3.9,3.9,0,0,1,9.6,478.124Z"/><path class="cls-15" d="M115.4,534.223a3.868,3.868,0,1,1-3.892-3.88A3.893,3.893,0,0,1,115.4,534.223Z"/><path class="cls-15" d="M101.936,514.885a3.835,3.835,0,1,1-3.726-3.9A3.915,3.915,0,0,1,101.936,514.885Z"/><path class="cls-15" d="M1.228,476.647A3.659,3.659,0,0,0,0,476.839v7.319a3.692,3.692,0,0,0,1.019.192,3.853,3.853,0,0,0,.209-7.7Z"/><path class="cls-15" d="M134.186,573.235a3.732,3.732,0,0,0,.293-1.429,3.852,3.852,0,1,0-7.7,0,3.716,3.716,0,0,0,.289,1.425Z"/><path class="cls-15" d="M129.09,553.88a3.834,3.834,0,1,1-3.82-3.81A3.917,3.917,0,0,1,129.09,553.88Z"/><path class="cls-15" d="M67.664,495.959a3.823,3.823,0,1,1,3.825-3.784A3.906,3.906,0,0,1,67.664,495.959Z"/><path class="cls-15" d="M86.733,503.631a3.853,3.853,0,1,1-3.62-4A3.909,3.909,0,0,1,86.733,503.631Z"/><path class="cls-15" d="M59.1,494.491a3.852,3.852,0,1,1,4.051-3.564A3.91,3.91,0,0,1,59.1,494.491Z"/><path class="cls-15" d="M132.076,567.534a3.784,3.784,0,1,1,3.826-3.776A3.85,3.85,0,0,1,132.076,567.534Z"/><path class="cls-15" d="M95.022,504.921a3.783,3.783,0,1,1-3.867-3.737A3.847,3.847,0,0,1,95.022,504.921Z"/><path class="cls-15" d="M31.428,476.55a3.748,3.748,0,1,1-3.742-3.677A3.777,3.777,0,0,1,31.428,476.55Z"/><path class="cls-15" d="M123.62,535.924a3.742,3.742,0,1,1-3.439-3.949A3.745,3.745,0,0,1,123.62,535.924Z"/><path class="cls-15" d="M76.1,497.375a3.748,3.748,0,1,1,3.673-3.747A3.775,3.775,0,0,1,76.1,497.375Z"/><path class="cls-15" d="M116.758,526.065a3.742,3.742,0,1,1-3.452-3.938A3.746,3.746,0,0,1,116.758,526.065Z"/><path class="cls-15" d="M23.05,475.148a3.725,3.725,0,1,1-3.667-3.744A3.72,3.72,0,0,1,23.05,475.148Z"/><path class="cls-15" d="M39.473,478.333a3.742,3.742,0,1,1-3.44-3.948A3.747,3.747,0,0,1,39.473,478.333Z"/><path class="cls-15" d="M106.139,520.03a3.725,3.725,0,1,1,3.744-3.667A3.718,3.718,0,0,1,106.139,520.03Z"/><path class="cls-15" d="M43.878,483.34a3.742,3.742,0,1,1,3.942-3.448A3.748,3.748,0,0,1,43.878,483.34Z"/><path class="cls-15" d="M102.95,506.406a3.654,3.654,0,1,1-3.745-3.6A3.583,3.583,0,0,1,102.95,506.406Z"/><path class="cls-15" d="M142.639,573.235a3.663,3.663,0,0,0-7.324,0v0Z"/><path class="cls-15" d="M133.486,559.05a3.655,3.655,0,1,1,3.779-3.566A3.587,3.587,0,0,1,133.486,559.05Z"/><path class="cls-15" d="M130.45,545.494a3.7,3.7,0,1,1-3.72-3.646A3.671,3.671,0,0,1,130.45,545.494Z"/><path class="cls-15" d="M14.655,473.7a3.685,3.685,0,1,1-3.616-3.752A3.635,3.635,0,0,1,14.655,473.7Z"/><path class="cls-15" d="M52.494,484.8a3.7,3.7,0,1,1,3.655-3.711A3.668,3.668,0,0,1,52.494,484.8Z"/><path class="cls-15" d="M57.149,482.526a3.655,3.655,0,1,1,3.63,3.716A3.585,3.585,0,0,1,57.149,482.526Z"/><path class="cls-15" d="M88.03,495.067a3.654,3.654,0,1,1-3.745-3.6A3.583,3.583,0,0,1,88.03,495.067Z"/><path class="cls-15" d="M121.344,523.744a3.6,3.6,0,1,1-3.57,3.6A3.562,3.562,0,0,1,121.344,523.744Z"/><path class="cls-15" d="M118.117,517.8a3.6,3.6,0,1,1-3.562-3.606A3.561,3.561,0,0,1,118.117,517.8Z"/><path class="cls-15" d="M92.69,500.208a3.6,3.6,0,1,1,3.636-3.518A3.567,3.567,0,0,1,92.69,500.208Z"/><path class="cls-15" d="M144.07,565.224a3.6,3.6,0,1,1-3.578-3.576A3.567,3.567,0,0,1,144.07,565.224Z"/><path class="cls-15" d="M2.527,468.5A3.6,3.6,0,0,0,0,469.565v5.157a3.632,3.632,0,0,0,2.63,1.064,3.643,3.643,0,1,0-.1-7.284Z"/><path class="cls-15" d="M69.161,480.17a3.612,3.612,0,1,1-3.615,3.534A3.558,3.558,0,0,1,69.161,480.17Z"/><path class="cls-15" d="M128.181,533.6a3.6,3.6,0,1,1-3.536,3.617A3.569,3.569,0,0,1,128.181,533.6Z"/><path class="cls-15" d="M135.145,550.622A3.581,3.581,0,1,1,138.684,547,3.585,3.585,0,0,1,135.145,550.622Z"/><path class="cls-15" d="M77.523,481.692a3.581,3.581,0,1,1-3.591,3.571A3.586,3.586,0,0,1,77.523,481.692Z"/><path class="cls-15" d="M107.678,504.37a3.581,3.581,0,1,1-3.608,3.554A3.587,3.587,0,0,1,107.678,504.37Z"/><path class="cls-15" d="M17.25,466.708a3.569,3.569,0,1,1,3.54,3.632A3.61,3.61,0,0,1,17.25,466.708Z"/><path class="cls-15" d="M12.49,468.832a3.551,3.551,0,1,1,3.524-3.5A3.618,3.618,0,0,1,12.49,468.832Z"/><path class="cls-15" d="M53.952,476.292a3.551,3.551,0,1,1,3.538-3.49A3.612,3.612,0,0,1,53.952,476.292Z"/><path class="cls-15" d="M45.642,467.681a3.569,3.569,0,1,1-3.625,3.547A3.61,3.61,0,0,1,45.642,467.681Z"/><path class="cls-15" d="M37.212,466.181a3.576,3.576,0,1,1-3.559,3.63A3.6,3.6,0,0,1,37.212,466.181Z"/><path class="cls-15" d="M32.748,468.31a3.577,3.577,0,1,1-3.568-3.621A3.6,3.6,0,0,1,32.748,468.31Z"/><path class="cls-15" d="M104.329,498.077a3.541,3.541,0,1,1-3.532-3.514A3.614,3.614,0,0,1,104.329,498.077Z"/><path class="cls-15" d="M62.33,470.7a3.531,3.531,0,1,1-3.566,3.5A3.607,3.607,0,0,1,62.33,470.7Z"/><path class="cls-15" d="M142.024,560.429a3.541,3.541,0,1,1,3.483-3.561A3.614,3.614,0,0,1,142.024,560.429Z"/><path class="cls-15" d="M150.481,573.235a3.481,3.481,0,0,0-6.287,0Z"/><path class="cls-15" d="M85.872,490.306a3.541,3.541,0,1,1,3.537-3.508A3.61,3.61,0,0,1,85.872,490.306Z"/><path class="cls-15" d="M4.146,467.307a3.519,3.519,0,0,1-.077-7.037,3.519,3.519,0,0,1,.077,7.037Z"/><path class="cls-15" d="M70.66,472.254a3.471,3.471,0,1,1-3.481,3.386A3.511,3.511,0,0,1,70.66,472.254Z"/><path class="cls-15" d="M140.084,538.677a3.489,3.489,0,1,1-3.535-3.479A3.549,3.549,0,0,1,140.084,538.677Z"/><path class="cls-15" d="M126.372,519.042a3.5,3.5,0,1,1-3.491-3.553A3.577,3.577,0,0,1,126.372,519.042Z"/><path class="cls-15" d="M129.778,532.342a3.5,3.5,0,1,1,3.457-3.586A3.572,3.572,0,0,1,129.778,532.342Z"/><path class="cls-15" d="M115.973,512.932a3.489,3.489,0,1,1,3.521-3.493A3.557,3.557,0,0,1,115.973,512.932Z"/><path class="cls-15" d="M148.885,562.987a3.45,3.45,0,1,1-3.5,3.32A3.471,3.471,0,0,1,148.885,562.987Z"/><path class="cls-15" d="M93.9,491.707a3.45,3.45,0,1,1,3.471-3.354A3.471,3.471,0,0,1,93.9,491.707Z"/><path class="cls-15" d="M146.859,548.559a3.4,3.4,0,1,1-3.375-3.427A3.358,3.358,0,0,1,146.859,548.559Z"/><path class="cls-15" d="M82.387,477.247a3.382,3.382,0,1,1-3.352-3.413A3.328,3.328,0,0,1,82.387,477.247Z"/><path class="cls-15" d="M112.544,499.627a3.4,3.4,0,1,1-3.371-3.432A3.36,3.36,0,0,1,112.544,499.627Z"/><path class="cls-15" d="M63.759,469.168a3.291,3.291,0,1,1,3.318-3.263A3.275,3.275,0,0,1,63.759,469.168Z"/><path class="cls-15" d="M105.6,489.69a3.317,3.317,0,1,1-3.338-3.257A3.27,3.27,0,0,1,105.6,489.69Z"/><path class="cls-15" d="M17.262,456.875a3.308,3.308,0,1,1-3.321-3.257A3.271,3.271,0,0,1,17.262,456.875Z"/><path class="cls-15" d="M58.748,464.326a3.317,3.317,0,1,1-3.339-3.257A3.27,3.27,0,0,1,58.748,464.326Z"/><path class="cls-15" d="M90.667,478.451a3.308,3.308,0,1,1-3.229-3.348A3.262,3.262,0,0,1,90.667,478.451Z"/><path class="cls-15" d="M33.705,459.928a3.339,3.339,0,1,1-3.246-3.357A3.279,3.279,0,0,1,33.705,459.928Z"/><path class="cls-15" d="M38.782,458.063a3.339,3.339,0,1,1-3.4,3.2A3.283,3.283,0,0,1,38.782,458.063Z"/><path class="cls-15" d="M120.788,501.143a3.291,3.291,0,1,1-3.235-3.345A3.274,3.274,0,0,1,120.788,501.143Z"/><path class="cls-15" d="M131.268,517.168a3.317,3.317,0,1,1-3.36,3.235A3.263,3.263,0,0,1,131.268,517.168Z"/><path class="cls-15" d="M124.314,514.252a3.318,3.318,0,1,1,3.363-3.233A3.263,3.263,0,0,1,124.314,514.252Z"/><path class="cls-15" d="M22.366,455.091a3.327,3.327,0,1,1-3.383,3.2A3.271,3.271,0,0,1,22.366,455.091Z"/><path class="cls-15" d="M153.648,558.332a3.327,3.327,0,1,1-3.3-3.278A3.264,3.264,0,0,1,153.648,558.332Z"/><path class="cls-15" d="M144.91,536.887a3.291,3.291,0,1,1-3.25,3.331A3.276,3.276,0,0,1,144.91,536.887Z"/><path class="cls-15" d="M141.4,530.34a3.317,3.317,0,1,1-3.269-3.325A3.264,3.264,0,0,1,141.4,530.34Z"/><path class="cls-15" d="M46.953,466.232a3.341,3.341,0,1,1,3.458-3.141A3.287,3.287,0,0,1,46.953,466.232Z"/><path class="cls-15" d="M8.882,455.436a3.283,3.283,0,1,1-3.317-3.285A3.278,3.278,0,0,1,8.882,455.436Z"/><path class="cls-15" d="M75.41,467.413a3.268,3.268,0,1,1-3.15-3.312A3.3,3.3,0,0,1,75.41,467.413Z"/><path class="cls-15" d="M151.817,546.776a3.249,3.249,0,1,1-3.252,3.208A3.3,3.3,0,0,1,151.817,546.776Z"/><path class="cls-15" d="M0,452.536v3.39A3.216,3.216,0,0,0,.5,454.4,3.167,3.167,0,0,0,0,452.536Z"/><path class="cls-15" d="M113.884,491.214a3.249,3.249,0,1,1-3.24-3.222A3.312,3.312,0,0,1,113.884,491.214Z"/><path class="cls-15" d="M157.168,571.189a3.261,3.261,0,1,1,3.276-3.206A3.305,3.305,0,0,1,157.168,571.189Z"/><path class="cls-15" d="M95.488,483.162a3.26,3.26,0,1,1,3.188-3.294A3.316,3.316,0,0,1,95.488,483.162Z"/><path class="cls-15" d="M80.5,465.649a3.212,3.212,0,1,1-3.212,3.25A3.294,3.294,0,0,1,80.5,465.649Z"/><path class="cls-15" d="M129.5,512.357a3.213,3.213,0,1,1,3.178,3.282A3.3,3.3,0,0,1,129.5,512.357Z"/><path class="cls-15" d="M142.791,521.9a3.212,3.212,0,1,1-3.322-3.139A3.3,3.3,0,0,1,142.791,521.9Z"/><path class="cls-15" d="M149.617,531.784a3.175,3.175,0,1,1-3.14-3.136A3.229,3.229,0,0,1,149.617,531.784Z"/><path class="cls-15" d="M125.909,505.755a3.175,3.175,0,1,1,3.119-3.157A3.23,3.23,0,0,1,125.909,505.755Z"/><path class="cls-15" d="M31.9,454.708a3.154,3.154,0,1,1,3.11-3.159A3.19,3.19,0,0,1,31.9,454.708Z"/><path class="cls-15" d="M37.06,453.046a3.154,3.154,0,1,1,3.116,3.154A3.189,3.189,0,0,1,37.06,453.046Z"/><path class="cls-15" d="M51.7,454.58a3.129,3.129,0,1,1-3.087-3.17A3.133,3.133,0,0,1,51.7,454.58Z"/><path class="cls-15" d="M106.925,481.444a3.154,3.154,0,1,1-3.066-3.2A3.189,3.189,0,0,1,106.925,481.444Z"/><path class="cls-15" d="M161.83,559.6a3.154,3.154,0,1,1-3.095-3.174A3.189,3.189,0,0,1,161.83,559.6Z"/><path class="cls-15" d="M163.18,551.567a3.012,3.012,0,1,1-2.962-3.062A2.958,2.958,0,0,1,163.18,551.567Z"/><path class="cls-15" d="M68.327,457.466a3.049,3.049,0,1,1-3.03-2.992A2.979,2.979,0,0,1,68.327,457.466Z"/><path class="cls-15" d="M56.887,452.949a3.082,3.082,0,1,1-3.045,3.155A3.03,3.03,0,0,1,56.887,452.949Z"/><path class="cls-15" d="M10.126,447.383a2.967,2.967,0,0,1-3,3.029,3.035,3.035,0,1,1,.013-6.07A2.965,2.965,0,0,1,10.126,447.383Z"/><path class="cls-15" d="M122.071,492.728a3.082,3.082,0,1,1-3.123-3.076A3.029,3.029,0,0,1,122.071,492.728Z"/><path class="cls-15" d="M15.4,445.506a3.065,3.065,0,1,1-3.015,3.039A3,3,0,0,1,15.4,445.506Z"/><path class="cls-15" d="M168.542,569.537a3,3,0,1,1-2.886-3.119A2.971,2.971,0,0,1,168.542,569.537Z"/><path class="cls-15" d="M91.656,470.331a3.1,3.1,0,1,1-3.125-3.081A3.071,3.071,0,0,1,91.656,470.331Z"/><path class="cls-15" d="M115.129,482.872a3,3,0,1,1-3.016-2.988A2.961,2.961,0,0,1,115.129,482.872Z"/><path class="cls-15" d="M156.387,541.644a3.082,3.082,0,1,1-3.145-3.055A3.029,3.029,0,0,1,156.387,541.644Z"/><path class="cls-15" d="M96.86,468.834a3.012,3.012,0,1,1-2.963,3.06A2.958,2.958,0,0,1,96.86,468.834Z"/><path class="cls-15" d="M23.779,453.166a3.1,3.1,0,1,1,3.125-3.081A3.073,3.073,0,0,1,23.779,453.166Z"/><path class="cls-15" d="M73.619,456.012a3,3,0,1,1-2.988,3.017A2.962,2.962,0,0,1,73.619,456.012Z"/><path class="cls-15" d="M157.766,533.294a2.969,2.969,0,1,1-2.952-2.948A3.01,3.01,0,0,1,157.766,533.294Z"/><path class="cls-15" d="M147.861,520.475a2.993,2.993,0,1,1-2.92,3.1A2.97,2.97,0,0,1,147.861,520.475Z"/><path class="cls-15" d="M0,443.174V448.6a2.955,2.955,0,0,0,1.729-2.705A2.957,2.957,0,0,0,0,443.174Z"/><path class="cls-15" d="M130.313,494.18a2.969,2.969,0,1,1-2.976-2.923A3.012,3.012,0,0,1,130.313,494.18Z"/><path class="cls-15" d="M141.056,510.628a2.993,2.993,0,1,1-2.978,3.045A2.967,2.967,0,0,1,141.056,510.628Z"/><path class="cls-15" d="M137.2,504.13a2.995,2.995,0,1,1-2.972-3.051A2.972,2.972,0,0,1,137.2,504.13Z"/><path class="cls-15" d="M81.96,457.547a2.96,2.96,0,1,1-2.931,2.951A3.02,3.02,0,0,1,81.96,457.547Z"/><path class="cls-15" d="M25.057,444.887a2.881,2.881,0,1,1,2.819-2.906A2.943,2.943,0,0,1,25.057,444.887Z"/><path class="cls-15" d="M167.1,558.132a2.935,2.935,0,1,1-3.007,2.9A3.015,3.015,0,0,1,167.1,558.132Z"/><path class="cls-15" d="M47.179,446.184a2.881,2.881,0,1,1,2.845,2.88A2.933,2.933,0,0,1,47.179,446.184Z"/><path class="cls-15" d="M161.622,540.26a2.9,2.9,0,1,1-2.864,2.866A2.977,2.977,0,0,1,161.622,540.26Z"/><path class="cls-15" d="M92.927,462.07a2.881,2.881,0,1,1-2.772-2.953A2.94,2.94,0,0,1,92.927,462.07Z"/><path class="cls-15" d="M108.2,473.073a2.936,2.936,0,1,1-2.938-2.968A3.011,3.011,0,0,1,108.2,473.073Z"/><path class="cls-15" d="M123.384,484.318a2.9,2.9,0,1,1-2.888-2.842A2.976,2.976,0,0,1,123.384,484.318Z"/><path class="cls-15" d="M33.38,446.1a2.9,2.9,0,1,1,2.872-2.858A2.977,2.977,0,0,1,33.38,446.1Z"/><path class="cls-15" d="M44.608,444.71a2.9,2.9,0,1,1-2.81-2.921A2.975,2.975,0,0,1,44.608,444.71Z"/><path class="cls-15" d="M16.9,443.345a2.831,2.831,0,1,1,2.867-2.8A2.821,2.821,0,0,1,16.9,443.345Z"/><path class="cls-15" d="M61.273,447.732a2.858,2.858,0,1,1-2.764-2.914A2.881,2.881,0,0,1,61.273,447.732Z"/><path class="cls-15" d="M138.462,495.721a2.762,2.762,0,1,1-2.684-2.766A2.7,2.7,0,0,1,138.462,495.721Z"/><path class="cls-15" d="M170.987,552.946a2.763,2.763,0,1,1-2.751-2.7A2.7,2.7,0,0,1,170.987,552.946Z"/><path class="cls-15" d="M152.207,515.085a2.781,2.781,0,1,1-2.734-2.753A2.722,2.722,0,0,1,152.207,515.085Z"/><path class="cls-15" d="M66.774,451.948a2.781,2.781,0,1,1,2.777-2.71A2.727,2.727,0,0,1,66.774,451.948Z"/><path class="cls-15" d="M142.539,508.365a2.8,2.8,0,1,1,2.824-2.814A2.755,2.755,0,0,1,142.539,508.365Z"/><path class="cls-15" d="M8.537,441.784a2.762,2.762,0,1,1,.093-5.524,2.762,2.762,0,1,1-.093,5.524Z"/><path class="cls-15" d="M172.1,573.235h3a2.747,2.747,0,1,0-3,0Z"/><path class="cls-15" d="M116.363,474.564a2.746,2.746,0,1,1-2.674-2.777A2.678,2.678,0,0,1,116.363,474.564Z"/><path class="cls-15" d="M98.458,460.746a2.746,2.746,0,1,1-2.8,2.65A2.68,2.68,0,0,1,98.458,460.746Z"/><path class="cls-15" d="M159.051,525a2.762,2.762,0,1,1-2.653-2.8A2.7,2.7,0,0,1,159.051,525Z"/><path class="cls-15" d="M75.1,453.376a2.717,2.717,0,1,1,2.745-2.689A2.668,2.668,0,0,1,75.1,453.376Z"/><path class="cls-15" d="M.171,434.824c-.058,0-.113.015-.171.019v5.371c.071.006.138.022.211.022a2.706,2.706,0,1,0-.04-5.412Z"/><path class="cls-15" d="M126.131,485.8a2.708,2.708,0,1,1,2.676,2.773A2.68,2.68,0,0,1,126.131,485.8Z"/><path class="cls-15" d="M106.693,467.64a2.658,2.658,0,1,1,2.72-2.595A2.714,2.714,0,0,1,106.693,467.64Z"/><path class="cls-15" d="M172.375,544.649A2.658,2.658,0,1,1,169.712,542,2.712,2.712,0,0,1,172.375,544.649Z"/><path class="cls-15" d="M175.029,559.89a2.668,2.668,0,1,1-2.609,2.69A2.709,2.709,0,0,1,175.029,559.89Z"/><path class="cls-15" d="M85.861,452.092a2.679,2.679,0,1,1-2.7-2.619A2.707,2.707,0,0,1,85.861,452.092Z"/><path class="cls-15" d="M162.905,537.513a2.706,2.706,0,1,1,2.655-2.8A2.676,2.676,0,0,1,162.905,537.513Z"/><path class="cls-15" d="M121.963,473.38a2.643,2.643,0,1,1-2.633,2.691A2.7,2.7,0,0,1,121.963,473.38Z"/><path class="cls-15" d="M153.546,507.022a2.628,2.628,0,1,1-2.7-2.594A2.7,2.7,0,0,1,153.546,507.022Z"/><path class="cls-15" d="M160.094,516.578a2.611,2.611,0,1,1-2.563-2.584A2.691,2.691,0,0,1,160.094,516.578Z"/><path class="cls-15" d="M91.61,451.055a2.589,2.589,0,1,1-2.661,2.478A2.653,2.653,0,0,1,91.61,451.055Z"/><path class="cls-15" d="M143.989,499.82a2.612,2.612,0,1,1,2.674-2.471A2.687,2.687,0,0,1,143.989,499.82Z"/><path class="cls-15" d="M43.2,434.024a2.611,2.611,0,1,1-2.618,2.53A2.688,2.688,0,0,1,43.2,434.024Z"/><path class="cls-15" d="M34.875,432.532a2.611,2.611,0,1,1-2.644,2.5A2.69,2.69,0,0,1,34.875,432.532Z"/><path class="cls-15" d="M26.477,436.239a2.589,2.589,0,1,1,2.6-2.541A2.653,2.653,0,0,1,26.477,436.239Z"/><path class="cls-15" d="M164.288,528.985a2.534,2.534,0,1,1,2.592-2.512A2.542,2.542,0,0,1,164.288,528.985Z"/><path class="cls-15" d="M137.228,489.9a2.534,2.534,0,1,1,2.5-2.607A2.536,2.536,0,0,1,137.228,489.9Z"/><path class="cls-15" d="M59.869,436.787a2.534,2.534,0,1,1-2.495,2.609A2.534,2.534,0,0,1,59.869,436.787Z"/><path class="cls-15" d="M51.588,435.265a2.564,2.564,0,1,1-2.6,2.527A2.6,2.6,0,0,1,51.588,435.265Z"/><path class="cls-15" d="M20.964,432.109a2.534,2.534,0,1,1-2.62-2.484A2.536,2.536,0,0,1,20.964,432.109Z"/><path class="cls-15" d="M12.515,430.675a2.381,2.381,0,0,1-2.448,2.432,2.44,2.44,0,1,1,.017-4.88A2.381,2.381,0,0,1,12.515,430.675Z"/><path class="cls-15" d="M117.586,466.528A2.476,2.476,0,1,1,115.238,464,2.434,2.434,0,0,1,117.586,466.528Z"/><path class="cls-15" d="M176.644,556.678a2.476,2.476,0,1,1,2.412-2.465A2.43,2.43,0,0,1,176.644,556.678Z"/><path class="cls-15" d="M70.72,440.752a2.458,2.458,0,1,1-2.48-2.4A2.4,2.4,0,0,1,70.72,440.752Z"/><path class="cls-15" d="M184.247,573.235a2.551,2.551,0,0,0,.144-.8,2.44,2.44,0,1,0-4.88-.058,2.588,2.588,0,0,0,.142.859Z"/><path class="cls-15" d="M102.332,455.07a2.44,2.44,0,1,1-2.5-2.375A2.385,2.385,0,0,1,102.332,455.07Z"/><path class="cls-15" d="M161.342,508.283a2.368,2.368,0,1,1-2.334-2.4A2.409,2.409,0,0,1,161.342,508.283Z"/><path class="cls-15" d="M130.265,475.091a2.424,2.424,0,1,1-2.36,2.525A2.37,2.37,0,0,1,130.265,475.091Z"/><path class="cls-15" d="M171.185,533.875a2.424,2.424,0,1,1-2.4,2.485A2.368,2.368,0,0,1,171.185,533.875Z"/><path class="cls-15" d="M1.812,426.786A2.377,2.377,0,0,0,0,427.52v3.313a2.39,2.39,0,1,0,1.812-4.047Z"/><path class="cls-15" d="M154.479,498.734a2.368,2.368,0,1,1-2.334-2.4A2.41,2.41,0,0,1,154.479,498.734Z"/><path class="cls-15" d="M78.73,442.357a2.412,2.412,0,1,1-2.4-2.464A2.373,2.373,0,0,1,78.73,442.357Z"/><path class="cls-15" d="M178.108,548.5a2.355,2.355,0,1,1,2.319-2.428A2.421,2.421,0,0,1,178.108,548.5Z"/><path class="cls-15" d="M145.223,486.516a2.338,2.338,0,1,1-2.312,2.289A2.414,2.414,0,0,1,145.223,486.516Z"/><path class="cls-15" d="M84.718,441.441a2.357,2.357,0,1,1-2.4,2.349A2.423,2.423,0,0,1,84.718,441.441Z"/><path class="cls-15" d="M110.586,456.585a2.338,2.338,0,1,1-2.306-2.3A2.414,2.414,0,0,1,110.586,456.585Z"/><path class="cls-15" d="M168.176,518.058a2.338,2.338,0,1,1-2.3-2.3A2.428,2.428,0,0,1,168.176,518.058Z"/><path class="cls-15" d="M125.8,467.637a2.338,2.338,0,1,1-2.3-2.307A2.414,2.414,0,0,1,125.8,467.637Z"/><path class="cls-15" d="M183.487,561.7a2.356,2.356,0,1,1-2.4,2.348A2.421,2.421,0,0,1,183.487,561.7Z"/><path class="cls-15" d="M174.937,528.055a2.235,2.235,0,1,1-2.162-2.347A2.24,2.24,0,0,1,174.937,528.055Z"/><path class="cls-15" d="M140.92,479.04a2.237,2.237,0,1,1-2.24-2.269A2.239,2.239,0,0,1,140.92,479.04Z"/><path class="cls-15" d="M38.534,426.774a2.2,2.2,0,1,1-2.14-2.186A2.158,2.158,0,0,1,38.534,426.774Z"/><path class="cls-15" d="M46.889,428.352a2.2,2.2,0,1,1-2.053-2.269A2.165,2.165,0,0,1,46.889,428.352Z"/><path class="cls-15" d="M55.218,429.754a2.174,2.174,0,1,1-2.154-2.156A2.112,2.112,0,0,1,55.218,429.754Z"/><path class="cls-15" d="M27.923,423.122a2.174,2.174,0,1,1-2.117,2.193A2.113,2.113,0,0,1,27.923,423.122Z"/><path class="cls-15" d="M93.028,443.089a2.2,2.2,0,1,1-2.2,2.127A2.161,2.161,0,0,1,93.028,443.089Z"/><path class="cls-15" d="M116.539,455.986a2.134,2.134,0,1,1-2.07,2.234A2.077,2.077,0,0,1,116.539,455.986Z"/><path class="cls-15" d="M19.56,421.67a2.134,2.134,0,1,1-2.07,2.235A2.077,2.077,0,0,1,19.56,421.67Z"/><path class="cls-15" d="M59.266,431.144a2.135,2.135,0,1,1,2.051,2.253A2.084,2.084,0,0,1,59.266,431.144Z"/><path class="cls-15" d="M133.924,469.194a2.1,2.1,0,1,1-2-2.137A2.086,2.086,0,0,1,133.924,469.194Z"/><path class="cls-15" d="M181.682,537.766a2.118,2.118,0,1,1-2.068-2.093A2.081,2.081,0,0,1,181.682,537.766Z"/><path class="cls-15" d="M185,557.828a2.134,2.134,0,1,1,2.07-2.234A2.077,2.077,0,0,1,185,557.828Z"/><path class="cls-15" d="M103.476,446.788a2.092,2.092,0,1,1-2.047-2.1A2.1,2.1,0,0,1,103.476,446.788Z"/><path class="cls-15" d="M69.816,430.366a2.093,2.093,0,1,1-2.153,1.992A2.1,2.1,0,0,1,69.816,430.366Z"/><path class="cls-15" d="M192.28,573.235a2.078,2.078,0,0,0-3.948,0Z"/><path class="cls-15" d="M162.546,500.243a2.08,2.08,0,1,1-2.029-2.13A2.114,2.114,0,0,1,162.546,500.243Z"/><path class="cls-15" d="M13.658,422.356a2.093,2.093,0,1,1-2.009-2.136A2.1,2.1,0,0,1,13.658,422.356Z"/><path class="cls-15" d="M148.746,480.465a2.006,2.006,0,1,1-2.039-1.972A2.06,2.06,0,0,1,148.746,480.465Z"/><path class="cls-15" d="M155.67,490.282a2.117,2.117,0,0,1-2.039,2.13,2.072,2.072,0,0,1-2.082-2.076,2,2,0,0,1,1.955-2.044A2.078,2.078,0,0,1,155.67,490.282Z"/><path class="cls-15" d="M167.3,511.807a2.118,2.118,0,0,1-2.031-2.138,2.078,2.078,0,0,1,2.174-1.981,2,2,0,0,1,1.947,2.052A2.072,2.072,0,0,1,167.3,511.807Z"/><path class="cls-15" d="M5.241,420.819a2.094,2.094,0,0,1-1.991,2.03,2.029,2.029,0,1,1,0-4.058A2.093,2.093,0,0,1,5.241,420.819Z"/><path class="cls-15" d="M79.862,433.889a2.051,2.051,0,1,1-2.036-1.991A2.12,2.12,0,0,1,79.862,433.889Z"/><path class="cls-15" d="M176.2,519.625a2.006,2.006,0,1,1-1.97-2.042A2.06,2.06,0,0,1,176.2,519.625Z"/><path class="cls-15" d="M191.837,563.6a1.925,1.925,0,0,1,1.879,2.125,1.837,1.837,0,0,1-2.027,1.745,1.937,1.937,0,0,1,.148-3.87Z"/><path class="cls-15" d="M186.373,549.615a2.021,2.021,0,0,1-1.923-2.069,1.982,1.982,0,0,1,2.105-1.872,1.914,1.914,0,0,1,1.838,1.982A1.974,1.974,0,0,1,186.373,549.615Z"/><path class="cls-15" d="M124.886,457.634a2.018,2.018,0,0,1,2.049,1.942,1.974,1.974,0,0,1-1.979,2,1.915,1.915,0,0,1-1.964-1.858A1.98,1.98,0,0,1,124.886,457.634Z"/><path class="cls-15" d="M109.682,446.334a1.92,1.92,0,0,1,1.986,2.019,1.84,1.84,0,0,1-1.936,1.848,1.934,1.934,0,0,1-.05-3.867Z"/><path class="cls-15" d="M88.074,435.414a1.9,1.9,0,1,1-3.8-.014,1.749,1.749,0,0,1,1.894-1.84A1.8,1.8,0,0,1,88.074,435.414Z"/><path class="cls-15" d="M94.437,435.121c1.106.084,1.82.621,1.859,1.742a1.776,1.776,0,0,1-3.55.14A1.732,1.732,0,0,1,94.437,435.121Z"/><path class="cls-15" d="M179.2,529.457a1.817,1.817,0,0,1,2.009-1.853,1.7,1.7,0,0,1,1.664,2.026,1.663,1.663,0,0,1-1.905,1.636A1.7,1.7,0,0,1,179.2,529.457Z"/><path class="cls-15" d="M139.9,468.79a1.747,1.747,0,0,1,1.8,1.922,1.831,1.831,0,0,1-3.66-.047A1.754,1.754,0,0,1,139.9,468.79Z"/><path class="cls-15" d="M189.872,539.67c-.664.443-1.29,1.168-2,1.261a1.649,1.649,0,1,1,.072-3.3c.705.126,1.3.875,1.943,1.346Z"/><path class="cls-15" d="M195.282,557.517a7.365,7.365,0,0,1-1.963,1.359c-.879.253-1.857-.819-1.76-1.755.1-1.024.76-1.786,1.75-1.612.712.126,1.316.864,1.968,1.329Z"/><path class="cls-15" d="M120.087,450.1a7.386,7.386,0,0,1-1.964,1.359c-.879.253-1.857-.82-1.76-1.756.105-1.023.761-1.786,1.75-1.611.713.125,1.318.865,1.971,1.33Z"/><path class="cls-15" d="M31.449,417.346a7.318,7.318,0,0,1-2.012,1.283c-.89.217-1.83-.9-1.7-1.819.148-1.015.826-1.76,1.81-1.547.708.153,1.285.916,1.92,1.407Z"/><path class="cls-15" d="M170.822,501.961a7.473,7.473,0,0,1-1.926,1.415c-.867.278-1.873-.77-1.806-1.711.073-1.031.717-1.8,1.706-1.657.716.106,1.34.829,2.006,1.277C170.809,501.51,170.815,501.736,170.822,501.961Z"/><path class="cls-15" d="M48.016,419.412c-.179,1.546-.738,2.261-1.857,2.253a1.612,1.612,0,0,1-1.717-1.689c-.021-1.107.682-1.9,1.752-1.748C46.906,418.332,47.524,419.073,48.016,419.412Z"/><path class="cls-15" d="M163.942,492.218a7.34,7.34,0,0,1-2,1.309c-.884.229-1.842-.874-1.719-1.8.136-1.016.805-1.769,1.792-1.569.709.144,1.294.9,1.935,1.38Z"/><path class="cls-15" d="M133.005,463.071c-.47-.645-1.217-1.241-1.341-1.946a1.649,1.649,0,1,1,3.3-.064c-.095.709-.821,1.333-1.266,2Z"/><path class="cls-15" d="M56.525,421.767a7.39,7.39,0,0,1-1.977,1.339c-.881.243-1.851-.842-1.743-1.773.118-1.02.778-1.779,1.767-1.594.711.133,1.309.878,1.957,1.351C56.528,421.316,56.526,421.541,56.525,421.767Z"/><path class="cls-15" d="M37.327,416.594c1.544.19,2.255.754,2.24,1.873a1.613,1.613,0,0,1-1.7,1.705c-1.107.013-1.9-.7-1.736-1.764C36.239,417.7,36.986,417.08,37.327,416.594Z"/><path class="cls-15" d="M157.037,482.265c-.636.47-1.223,1.221-1.92,1.343A1.373,1.373,0,0,1,153.488,482a2.318,2.318,0,0,1,1.51-1.586c.632-.054,1.335.728,2.007,1.147Q157.02,481.913,157.037,482.265Z"/><path class="cls-15" d="M62.541,424.835c-.445-.654-1.173-1.27-1.266-1.971a1.373,1.373,0,0,1,1.671-1.563,2.319,2.319,0,0,1,1.522,1.574c.029.633-.779,1.3-1.222,1.959Z"/><path class="cls-15" d="M23.032,415.846c-.665.429-1.3,1.145-2,1.218a1.375,1.375,0,0,1-1.522-1.71,2.321,2.321,0,0,1,1.613-1.482c.634-.013,1.285.81,1.929,1.269C23.045,415.376,23.038,415.611,23.032,415.846Z"/><path class="cls-15" d="M177.563,511.633c-.66.415-1.352,1.192-1.971,1.137a2.28,2.28,0,0,1-1.475-1.579,1.34,1.34,0,0,1,1.659-1.54c.657.129,1.2.848,1.793,1.3Z"/><path class="cls-15" d="M103.313,436.608c.384.629,1.013,1.227,1.1,1.894.122.971-.61,1.538-1.6,1.5s-1.664-.689-1.464-1.635c.14-.655.825-1.195,1.266-1.786Z"/><path class="cls-15" d="M184.312,521.506c-.586.369-1.138.965-1.765,1.057-.986.144-1.557-.544-1.52-1.549s.7-1.628,1.65-1.412c.614.139,1.113.791,1.663,1.213Z"/><path class="cls-15" d="M148.59,470.365c.392.571,1.011,1.1,1.124,1.721.176.972-.474,1.583-1.489,1.579s-1.657-.624-1.474-1.592c.118-.62.743-1.144,1.142-1.71Z"/><path class="cls-15" d="M12.666,415.728c-.38-.579-.987-1.12-1.088-1.744-.16-.98.509-1.57,1.519-1.549s1.643.664,1.443,1.623c-.128.617-.769,1.127-1.18,1.686Z"/><path class="cls-15" d="M72.782,424.741c-.608.417-1.173,1.076-1.834,1.193-.96.169-1.571-.525-1.577-1.524s.595-1.7,1.557-1.543c.663.108,1.237.759,1.85,1.168Z"/><path class="cls-15" d="M81.046,426.17c-.561.406-1.154,1.166-1.675,1.12-.556-.049-1.044-.86-1.562-1.338.478-.518.9-1.366,1.451-1.458.516-.087,1.167.625,1.758.985Z"/><path class="cls-15" d="M196.476,549.224c-.592.362-1.21,1.036-1.77.992-.5-.04-1.367-.948-1.3-1.34a2.1,2.1,0,0,1,1.4-1.425c.514-.061,1.126.7,1.695,1.093Z"/><path class="cls-15" d="M200.21,569.1c-.7-.95-1.438-1.516-1.4-2.015.045-.526.835-.989,1.3-1.479.49.465,1.3.884,1.377,1.407C201.563,567.5,200.856,568.109,200.21,569.1Z"/><path class="cls-15" d="M6.774,412.483c-.951.67-1.581,1.439-2.025,1.343-.578-.124-1.008-.934-1.5-1.449.5-.457.981-1.238,1.514-1.276C5.271,411.064,5.837,411.8,6.774,412.483Z"/><path class="cls-15" d="M128.514,451.362c-.974.627-1.633,1.37-2.074,1.257-.572-.146-.969-.974-1.442-1.509.52-.437,1.03-1.2,1.564-1.217C127.071,449.876,127.606,450.636,128.514,451.362Z"/><path class="cls-15" d="M112.824,440.264c-.555.349-1.17,1.039-1.648.955a1.992,1.992,0,0,1-1.242-1.422c-.046-.364.826-1.179,1.3-1.186.532-.008,1.073.663,1.61,1.039Z"/><path class="cls-15" d="M87.712,428.983c-.648-.843-1.338-1.349-1.313-1.817.027-.493.736-.95,1.147-1.423.486.447,1.239.829,1.37,1.363C89.013,427.507,88.31,428.1,87.712,428.983Z"/><path class="cls-15" d="M189.653,529.315c.384.531,1.111,1.1,1.059,1.583a1.976,1.976,0,0,1-1.336,1.328c-.365.068-1.234-.745-1.271-1.212-.041-.53.594-1.113.935-1.673Z"/><path class="cls-15" d="M141.082,463.9c-.369-.541-1.08-1.13-1.014-1.611A1.982,1.982,0,0,1,141.441,461c.365-.059,1.21.78,1.234,1.248.028.531-.622,1.1-.978,1.646Z"/><path class="cls-15" d="M95.966,426.916c.564.768,1.154,1.221,1.12,1.621-.036.423-.667.8-1.038,1.189-.394-.372-1.046-.7-1.107-1.124C94.883,428.205,95.446,427.718,95.966,426.916Z"/><path class="cls-15" d="M178.97,502.886c-.889.576-1.41,1.177-1.822,1.11a1.731,1.731,0,0,1-1.087-1.211c-.049-.3.69-1.021,1.086-1.028C177.613,501.748,178.091,502.305,178.97,502.886Z"/><path class="cls-15" d="M134.457,454.41c-.519-.8-1.082-1.291-1.023-1.688.061-.419.714-.751,1.109-1.122.37.395,1,.768,1.036,1.191C135.612,453.191,135.022,453.643,134.457,454.41Z"/><path class="cls-15" d="M165.243,483.447c-.873.6-1.379,1.209-1.793,1.153a1.726,1.726,0,0,1-1.115-1.182c-.057-.3.661-1.038,1.057-1.057C163.855,482.338,164.345,482.884,165.243,483.447Z"/><path class="cls-15" d="M170.234,491.557c.617.8,1.286,1.3,1.219,1.667-.089.5-.745.889-1.158,1.326-.4-.4-1.065-.766-1.124-1.212C169.114,492.915,169.693,492.408,170.234,491.557Z"/><path class="cls-15" d="M47.618,413.054c-.462-.691-1.012-1.169-.928-1.468.12-.424.707-.715,1.095-1.063.313.374.857.739.872,1.125C48.671,412.014,48.131,412.4,47.618,413.054Z"/><path class="cls-15" d="M156.494,475.26c-.484-.824-1.02-1.334-.94-1.712a1.6,1.6,0,0,1,1.181-.934c.278-.032.908.689.891,1.049C157.606,474.1,157.065,474.5,156.494,475.26Z"/><path class="cls-15" d="M203.27,558.592c-.761.569-1.207,1.157-1.592,1.12a1.6,1.6,0,0,1-1.066-1.062c-.062-.275.581-.986.94-1.009C201.983,557.612,202.449,558.106,203.27,558.592Z"/><path class="cls-15" d="M121.211,441.456c-.807.506-1.3,1.057-1.681.987a1.614,1.614,0,0,1-.976-1.152c-.04-.273.665-.925,1.029-.92C120.013,440.376,120.437,440.906,121.211,441.456Z"/><path class="cls-15" d="M194.65,540.871c.757-.573,1.164-1.114,1.595-1.135.361-.017,1.082.612,1.051.89a1.6,1.6,0,0,1-.932,1.183C195.985,541.89,195.475,541.353,194.65,540.871Z"/><path class="cls-15" d="M185.665,512.7c-.782.541-1.249,1.113-1.631,1.061a1.6,1.6,0,0,1-1.027-1.1c-.053-.274.618-.96.979-.971C184.418,511.674,184.865,512.184,185.665,512.7Z"/><path class="cls-15" d="M40.8,410.176c-.7.442-1.2.977-1.494.885-.418-.13-.69-.728-1.025-1.125.382-.3.762-.838,1.145-.84S40.163,409.645,40.8,410.176Z"/><path class="cls-15" d="M23.919,407c-.608.471-.964.959-1.277.933a1.323,1.323,0,0,1-.875-.861c-.056-.211.46-.8.742-.82C22.867,406.229,23.25,406.617,23.919,407Z"/><path class="cls-15" d="M57.449,413.161c-.7.407-1.125.842-1.509.812-.318-.025-.892-.7-.822-.91a1.566,1.566,0,0,1,1.016-.913C56.416,412.1,56.8,412.637,57.449,413.161Z"/><path class="cls-15" d="M151.04,463.751c-.63.445-.972.869-1.328.881-.287.01-.864-.527-.827-.734a1.339,1.339,0,0,1,.789-.948C149.984,462.893,150.388,463.343,151.04,463.751Z"/><path class="cls-15" d="M104.436,431.283c-.431-.52-.933-.88-.88-1.12.08-.365.542-.646.842-.963.28.288.752.555.786.869S104.8,430.728,104.436,431.283Z"/><path class="cls-15" d="M64.345,413.208c.457.622.937.989.909,1.314a1.246,1.246,0,0,1-.846.895,1.248,1.248,0,0,1-.9-.845C63.466,414.25,63.924,413.855,64.345,413.208Z"/><path class="cls-15" d="M192.217,522.5c-.619.46-.985.94-1.3.907a1.326,1.326,0,0,1-.857-.88c-.053-.21.476-.79.76-.8C191.18,521.715,191.555,522.11,192.217,522.5Z"/><path class="cls-15" d="M73.653,416.1c-.554.373-.959.834-1.194.76-.358-.114-.6-.6-.889-.924.314-.254.624-.7.944-.706C72.817,415.223,73.13,415.676,73.653,416.1Z"/><path class="cls-15" d="M32.392,408.576c-.676.459-1.063.923-1.448.921-.32,0-.637-.551-.955-.858.331-.342.617-.867,1.01-.966C31.278,407.6,31.7,408.1,32.392,408.576Z"/><circle class="cls-14" cx="91.759" cy="237.113" r="2.666"/><circle class="cls-14" cx="600.088" cy="196.26" r="4.597"/><circle class="cls-13" cx="64.9" cy="77.437" r="2.298"/><path class="cls-13" d="M694.728,124.237a2.3,2.3,0,1,1-2.3-2.3A2.3,2.3,0,0,1,694.728,124.237Z"/><circle class="cls-14" cx="463.659" cy="154.116" r="2.298"/><circle class="cls-14" cx="509.478" cy="505.272" r="2.298"/><circle class="cls-13" cx="272.651" cy="342.149" r="2.298"/><path class="cls-13" d="M749.792,409.716a2.3,2.3,0,1,1-2.3-2.3A2.3,2.3,0,0,1,749.792,409.716Z"/><path class="cls-14" d="M312.519,477.074a3.124,3.124,0,1,1-3.124-3.124A3.124,3.124,0,0,1,312.519,477.074Z"/><rect class="cls-13" x="539.985" y="65.503" width="4.222" height="14.232"/><rect class="cls-13" x="539.985" y="65.503" width="4.222" height="14.232" transform="translate(614.715 -469.476) rotate(90)"/><rect class="cls-13" x="257.418" y="196.243" width="2.737" height="9.227"/><rect class="cls-13" x="257.418" y="196.243" width="2.737" height="9.227" transform="translate(459.643 -57.93) rotate(90)"/><rect class="cls-14" x="568.355" y="475.585" width="2.737" height="9.227"/><rect class="cls-14" x="568.355" y="475.585" width="2.737" height="9.227" transform="translate(1049.922 -89.525) rotate(90)"/><rect class="cls-14" x="144.53" y="473.229" width="4.947" height="16.675"/><rect class="cls-14" x="144.53" y="473.229" width="4.947" height="16.676" transform="translate(628.571 334.563) rotate(90)"/><line class="cls-16" x1="312.519" y1="65.503" x2="274.758" y2="103.264"/><line class="cls-16" x1="578.604" y1="390.406" x2="539.985" y2="429.026"/><line class="cls-17" x1="266.71" y1="426.041" x2="229.201" y2="463.549"/><line class="cls-17" x1="565.11" y1="119.318" x2="527.601" y2="156.826"/><circle class="cls-16" cx="149.478" cy="365.568" r="71.703"/></g></g></g></svg>