<svg xmlns="http://www.w3.org/2000/svg" xmlns:xlink="http://www.w3.org/1999/xlink" viewBox="0 0 145.724 145.724"><defs><style>.cls-1{fill:none;}.cls-2{fill:#fff;}.cls-3{isolation:isolate;}.cls-4{mix-blend-mode:screen;fill:url(#Unnamed_Pattern_5);}</style><pattern id="Unnamed_Pattern_5" data-name="Unnamed Pattern 5" width="28.8" height="28.8" patternTransform="translate(65.008 30.718) rotate(-45) scale(0.701)" patternUnits="userSpaceOnUse" viewBox="0 0 28.8 28.8"><rect class="cls-1" width="28.8" height="28.8"/><path class="cls-2" d="M28.8,30.961A2.161,2.161,0,1,0,26.64,28.8,2.16,2.16,0,0,0,28.8,30.961Z"/><path class="cls-2" d="M14.4,30.961A2.161,2.161,0,1,0,12.24,28.8,2.161,2.161,0,0,0,14.4,30.961Z"/><path class="cls-2" d="M28.8,16.56a2.16,2.16,0,1,0-2.16-2.16A2.16,2.16,0,0,0,28.8,16.56Z"/><path class="cls-2" d="M14.4,16.56a2.16,2.16,0,1,0-2.16-2.16A2.161,2.161,0,0,0,14.4,16.56Z"/><path class="cls-2" d="M7.2,23.759A2.159,2.159,0,1,0,5.039,21.6,2.16,2.16,0,0,0,7.2,23.759Z"/><path class="cls-2" d="M21.6,23.759a2.159,2.159,0,1,0-2.16-2.16A2.161,2.161,0,0,0,21.6,23.759Z"/><path class="cls-2" d="M7.2,9.359A2.159,2.159,0,1,0,5.039,7.2,2.16,2.16,0,0,0,7.2,9.359Z"/><path class="cls-2" d="M21.6,9.359A2.159,2.159,0,1,0,19.44,7.2,2.161,2.161,0,0,0,21.6,9.359Z"/><path class="cls-2" d="M0,30.961A2.161,2.161,0,0,0,2.159,28.8,2.16,2.16,0,0,0,0,26.64,2.16,2.16,0,0,0-2.16,28.8,2.16,2.16,0,0,0,0,30.961Z"/><path class="cls-2" d="M0,16.56A2.16,2.16,0,0,0,2.159,14.4,2.16,2.16,0,0,0,0,12.24,2.16,2.16,0,0,0-2.16,14.4,2.16,2.16,0,0,0,0,16.56Z"/><path class="cls-2" d="M28.8,2.161A2.16,2.16,0,0,0,30.959,0,2.159,2.159,0,0,0,28.8-2.159,2.159,2.159,0,0,0,26.64,0,2.16,2.16,0,0,0,28.8,2.161Z"/><path class="cls-2" d="M14.4,2.161A2.161,2.161,0,0,0,16.56,0a2.16,2.16,0,0,0-2.16-2.16A2.159,2.159,0,0,0,12.24,0,2.159,2.159,0,0,0,14.4,2.161Z"/><path class="cls-2" d="M0,2.161A2.16,2.16,0,0,0,2.159,0,2.16,2.16,0,0,0,0-2.159,2.159,2.159,0,0,0-2.16,0,2.16,2.16,0,0,0,0,2.161Z"/></pattern></defs><title>dots</title><g class="cls-3"><g id="Layer_2" data-name="Layer 2"><g id="Layer_1-2" data-name="Layer 1"><circle class="cls-4" cx="72.862" cy="72.862" r="72.862" transform="translate(-30.18 72.862) rotate(-45)"/></g></g></g></svg>