<svg xmlns="http://www.w3.org/2000/svg" xmlns:xlink="http://www.w3.org/1999/xlink" viewBox="0 0 818.774 818.775"><defs><style>.cls-1{fill:url(#radial-gradient);}</style><radialGradient id="radial-gradient" cx="680.385" cy="97.283" r="724.664" gradientUnits="userSpaceOnUse"><stop offset="0" stop-opacity="0"/><stop offset="0.102" stop-color="#060500" stop-opacity="0.026"/><stop offset="0.238" stop-color="#161400" stop-opacity="0.1"/><stop offset="0.391" stop-color="#322c00" stop-opacity="0.222"/><stop offset="0.558" stop-color="#584d00" stop-opacity="0.393"/><stop offset="0.735" stop-color="#897800" stop-opacity="0.612"/><stop offset="0.92" stop-color="#c4ac00" stop-opacity="0.875"/><stop offset="1" stop-color="#e0c500"/></radialGradient></defs><title>side-slide</title><g id="Layer_2" data-name="Layer 2"><g id="Layer_1-2" data-name="Layer 1"><path class="cls-1" d="M732.3,60.3l-672,672-.437-.438,672-672Zm-7.089-7.089-672,672,.438.438,672-672Zm-6.652-6.652-672,672L47,719,719,47Zm19.956,19.955-672,672,.437.438,672-672ZM711.907,39.911l-672,672,.438.438,672-672ZM678.648,6.652l-672,672,.438.438,672-672ZM685.3,13.3l-672,672,.438.438,672-672ZM672,0,0,672l.438.438,672-672Zm33.259,33.259-672,672,.438.437,672-672Zm-13.3-13.3-672,672,.437.438,672-672Zm6.651,6.651-672,672,.438.438,672-672ZM745.166,73.17l-672,672,.438.437,672-672Zm59.867,59.867-672,672,.438.438,672-672ZM751.818,79.822l-672,672,.438.437,672-672Zm39.911,39.911-672,672,.438.437,672-672Zm27.045,27.045-.438-.437-672,672,.438.438Zm-7.089-7.089-672,672,.437.438,672-672Zm-13.3-13.3-672,672,.438.438,672-672ZM765.122,93.126l-672,672,.438.438,672-672Zm-6.652-6.652-672,672,.438.438,672-672Zm26.607,26.607-672,672,.438.437,672-672Zm-13.3-13.3-672,672,.437.438,672-672Zm6.652,6.652-672,672,.438.438,672-672Z"/></g></g></svg>